<svg width="51" height="51" viewBox="0 0 51 51" fill="none" xmlns="http://www.w3.org/2000/svg">
<path d="M21.4246 42.8529C25.1048 42.8563 28.723 41.9053 31.9259 40.0929L40.8112 48.9782C41.8937 50.0606 43.3618 50.6687 44.8926 50.6687C46.4234 50.6687 47.8915 50.0606 48.9739 48.9782C50.0563 47.8958 50.6644 46.4277 50.6644 44.8969C50.6644 43.3661 50.0563 41.898 48.9739 40.8155L40.0886 31.9302C42.6295 27.4191 43.4504 22.1403 42.3993 17.0706C41.3483 12.0009 38.4964 7.48357 34.3715 4.35443C30.2466 1.22529 25.1279 -0.303793 19.9625 0.0501287C14.7971 0.404051 9.93479 2.61702 6.27523 6.27954C3.27892 9.27574 1.23839 13.0932 0.411696 17.2491C-0.414999 21.405 0.00926797 25.7128 1.63085 29.6276C3.25242 33.5423 5.99848 36.8884 9.52174 39.2425C13.045 41.5965 17.1872 42.853 21.4246 42.8529ZM10.0459 10.0502C12.6783 7.41904 16.1415 5.78196 19.8455 5.41789C23.5495 5.05382 27.2652 5.98528 30.3595 8.05357C33.4538 10.1219 35.7352 13.199 36.8151 16.7608C37.8951 20.3226 37.7066 24.1486 36.2819 27.587C34.8572 31.0254 32.2845 33.8635 29.0019 35.6177C25.7194 37.3719 21.9301 37.9337 18.2798 37.2075C14.6295 36.4812 11.3439 34.5117 8.98282 31.6346C6.62175 28.7575 5.33126 25.1507 5.33123 21.4289C5.32477 19.3146 5.7382 17.22 6.54752 15.2668C7.35685 13.3135 8.54597 11.5403 10.0459 10.0502Z" fill="#1EA8DF"/>
</svg>
