<svg width="59" height="50" viewBox="0 0 59 50" fill="none" xmlns="http://www.w3.org/2000/svg">
<path d="M40 21.4286C44.4267 21.4286 47.9733 16.6429 47.9733 10.7143C47.9733 4.78571 44.4267 0 40 0C35.5733 0 32 4.78571 32 10.7143C32 16.6429 35.5733 21.4286 40 21.4286ZM18.6667 21.4286C23.0933 21.4286 26.64 16.6429 26.64 10.7143C26.64 4.78571 23.0933 0 18.6667 0C14.24 0 10.6667 4.78571 10.6667 10.7143C10.6667 16.6429 14.24 21.4286 18.6667 21.4286ZM18.6667 28.5714C12.4533 28.5714 0 32.75 0 41.0714V50H37.3333V41.0714C37.3333 32.75 24.88 28.5714 18.6667 28.5714ZM40 28.5714C39.2267 28.5714 38.3467 28.6429 37.4133 28.75C40.5067 31.75 42.6667 35.7857 42.6667 41.0714V50H58.6667V41.0714C58.6667 32.75 46.2133 28.5714 40 28.5714Z" fill="#8742E8"/>
</svg>
