<svg width="16" height="16" viewBox="0 0 16 16" fill="none" xmlns="http://www.w3.org/2000/svg">
<g clip-path="url(#clip0_1_69)">
<path d="M2.77498 7.59989C2.77498 7.23989 2.76498 6.69489 2.74498 5.96489C2.73498 5.13489 2.72998 4.51489 2.72998 4.10489C2.72998 3.41489 2.75498 2.79989 2.80498 2.25989C2.85498 1.61989 3.02248 1.12489 3.30748 0.774891C3.59248 0.424891 3.96248 0.249891 4.41748 0.249891C4.87248 0.249891 5.36998 0.434891 5.90998 0.804891C7.86998 2.13489 10.325 3.92489 13.275 6.17489C13.925 6.66489 14.2475 7.18739 14.2425 7.74239C14.2375 8.29739 13.905 8.81989 13.245 9.30989C11.705 10.4699 10.455 11.3999 9.49498 12.0999C8.11498 13.1099 6.84498 14.0149 5.68498 14.8149C5.23498 15.1249 4.79998 15.2699 4.37998 15.2499C3.95998 15.2299 3.61248 15.0574 3.33748 14.7324C3.06248 14.4074 2.89998 13.9574 2.84998 13.3824C2.79998 12.8074 2.77498 12.1499 2.77498 11.4099C2.76498 10.9599 2.76998 10.2899 2.78998 9.39989C2.80998 8.59989 2.81998 7.99989 2.81998 7.59989H2.77498Z" fill="white"/>
</g>
<defs>
<clipPath id="clip0_1_69">
<rect width="15.02" height="15" fill="white" transform="matrix(1 0 0 -1 0.97998 15.25)"/>
</clipPath>
</defs>
</svg>
