<svg width="64" height="64" viewBox="0 0 64 64" fill="none" xmlns="http://www.w3.org/2000/svg">
<path d="M35.4074 40.3382C42.6206 40.3382 48.4867 34.4721 48.4867 27.259C48.4867 20.0458 42.6206 14.1797 35.4074 14.1797C28.1942 14.1797 22.3281 20.0457 22.3281 27.259C22.3281 34.4722 28.1942 40.3382 35.4074 40.3382Z" fill="#213F96"/>
<path d="M24.2859 42.9354C19.2478 42.9354 15.1641 47.0191 15.1641 52.0572V62.2455C15.1641 63.2139 15.9499 63.9997 16.9183 63.9997H53.8967C54.865 63.9997 55.6509 63.2139 55.6509 62.2455V52.3098C55.8052 52.0431 55.9456 51.7554 56.0578 51.4537L63.2149 32.5084C63.4535 31.8769 63.5798 31.2033 63.5798 30.5227V9.26186C63.5798 6.16044 61.0678 3.64844 57.9664 3.64844C54.865 3.64844 52.353 6.16044 52.353 9.26186V29.4982L47.2798 42.9354H24.2859Z" fill="#213F96"/>
<path d="M2.16215 12.4969H6.30205C7.17213 12.4969 7.90889 11.8654 8.03519 11.0093C8.27376 9.45159 8.75792 8.30084 9.47363 7.60618C10.1402 6.96064 11.0594 6.64489 12.2944 6.64489C13.5714 6.64489 14.5468 6.99572 15.2905 7.72547C16.0343 8.45521 16.3781 9.33231 16.3781 10.4971C16.3781 11.0444 16.2518 11.5496 15.9922 12.0408C15.8589 12.2864 15.3397 13.0442 13.3609 14.7212C11.5225 16.2789 10.2806 17.7454 9.55783 19.1979C8.82107 20.6784 8.46321 22.8326 8.46321 25.7656C8.46321 26.7339 9.24909 27.5198 10.2174 27.5198H13.9573C14.9257 27.5198 15.7115 26.7339 15.7115 25.7656C15.7115 23.4992 15.9852 22.573 16.1466 22.2221C16.2729 21.9415 16.7991 21.1135 18.8831 19.3873C20.8198 17.7805 22.1249 16.314 22.8687 14.9106C23.6335 13.4722 24.0194 11.8934 24.0194 10.2234C24.0194 7.24131 22.8896 4.75036 20.6514 2.81373C18.4902 0.947264 15.6694 0 12.2663 0C9.02456 0 6.281 0.968315 4.12685 2.86986C1.95165 4.79246 0.709679 7.39568 0.429008 10.6023C0.330773 11.6128 1.1377 12.4969 2.16215 12.4969Z" fill="#213F96"/>
<path d="M13.9432 37.4405C14.9115 37.4405 15.6974 36.6547 15.6974 35.6863V31.9534C15.6974 30.985 14.9115 30.1992 13.9432 30.1992H10.2102C9.24193 30.1992 8.45605 30.985 8.45605 31.9534V35.6863C8.45605 36.6547 9.24193 37.4405 10.2102 37.4405H13.9432Z" fill="#213F96"/>
</svg>
