<svg width="51" height="51" viewBox="0 0 51 51" fill="none" xmlns="http://www.w3.org/2000/svg">
<g clip-path="url(#clip0_140_2)">
<path d="M44.309 16.8142C44.309 18.3255 43.7086 19.7749 42.64 20.8436C41.5713 21.9122 40.1219 22.5126 38.6105 22.5126C37.0992 22.5126 35.6498 21.9122 34.5811 20.8436C33.5125 19.7749 32.9121 18.3255 32.9121 16.8142C32.9121 15.3028 33.5125 13.8534 34.5811 12.7848C35.6498 11.7161 37.0992 11.1157 38.6105 11.1157C40.1219 11.1157 41.5713 11.7161 42.64 12.7848C43.7086 13.8534 44.309 15.3028 44.309 16.8142Z" fill="white"/>
<path d="M2.91465 5.5626V15.8978H1.36934C1.29968 15.898 1.23067 15.8844 1.16627 15.8579C1.10187 15.8313 1.04335 15.7923 0.994056 15.7431C0.944767 15.6939 0.905684 15.6354 0.879052 15.5711C0.852421 15.5067 0.838765 15.4377 0.838868 15.3681V2.03213C0.838868 1.58057 1.17559 1.21338 1.63731 1.21338H8.4709C8.93184 1.21338 9.26934 1.57979 9.26934 2.03057V2.81338H19.8342C20.1295 2.81338 20.3654 3.0501 20.3654 3.3415V6.33994H11.3467V5.55479C11.3467 5.104 11.0092 4.7376 10.5467 4.7376H3.71543C3.25293 4.7376 2.91465 5.11025 2.91465 5.5626Z" fill="white"/>
<path d="M24.5197 22.156C24.5197 22.2256 24.506 22.2945 24.4792 22.3588C24.4525 22.4231 24.4133 22.4814 24.3639 22.5305C24.3146 22.5796 24.256 22.6184 24.1915 22.6448C24.1271 22.6711 24.0581 22.6845 23.9885 22.6841H5.52363C5.45402 22.6844 5.38503 22.6709 5.32063 22.6445C5.25623 22.618 5.1977 22.5791 5.1484 22.53C5.0991 22.4808 5.06 22.4224 5.03336 22.3581C5.00672 22.2937 4.99306 22.2248 4.99316 22.1552V8.81924C4.99316 8.36768 5.32988 8.00049 5.7916 8.00049H12.6236C13.0861 8.00049 13.4236 8.36689 13.4236 8.81768V9.60049H23.9885C24.283 9.60049 24.5197 9.83721 24.5197 10.1286V22.156ZM16.3291 14.563V11.4177H13.1822V14.563H10.0361V17.7099H13.1822V20.856H16.3291V17.7099H19.4752V14.563H16.3291Z" fill="white"/>
<path d="M44.2408 23.981C44.9912 23.9803 45.7344 24.1276 46.4279 24.4143C47.1213 24.701 47.7515 25.1216 48.2824 25.6519C48.8132 26.1823 49.2344 26.8121 49.5218 27.5053C49.8092 28.1985 49.9571 28.9415 49.9572 29.6919L49.9689 50.5771H30.7939V33.2638H30.0174L26.4814 38.5396C25.9057 39.3247 24.7369 39.7052 23.8049 39.7052H15.5033C14.8413 39.7054 14.2063 39.4428 13.7378 38.975C13.2693 38.5073 13.0057 37.8727 13.0049 37.2106C13.0049 35.8356 14.1244 34.7497 15.5033 34.7497H23.0541L28.2924 26.8294C29.5471 24.9138 32.0018 23.988 33.9775 23.988L44.24 23.9817L44.2408 23.981Z" fill="white"/>
</g>
<defs>
<clipPath id="clip0_140_2">
<rect width="50" height="50" fill="white" transform="translate(0.342773 0.671387)"/>
</clipPath>
</defs>
</svg>
