<svg width="30" height="30" viewBox="0 0 30 30" fill="none" xmlns="http://www.w3.org/2000/svg">
<path d="M22.6172 18.914H18.1875V14.2968C18.1875 12.2578 16.5352 10.6054 14.4961 10.6054H3.92578C1.88672 10.6054 0.234375 12.2578 0.234375 14.2968V26.5312C0.234375 27.4218 0.960938 28.1484 1.85156 28.1484C2.29688 28.1484 2.70703 27.9726 3 27.6796C3.29297 27.3867 3.46875 26.9882 3.46875 26.5312V16.1367C3.46875 15.8906 3.66797 15.6796 3.92578 15.6796H3.9375C4.19531 15.6796 4.39453 15.8789 4.39453 16.1367V28.1484H14.0859V16.1718C14.0859 15.9023 14.2617 15.6796 14.5781 15.6796C14.8711 15.6914 15.0117 15.9375 15.0117 16.1836V20.2851C15.0117 21.3047 15.8438 22.1367 16.8633 22.125L22.6172 22.1367C23.5078 22.1367 24.2344 21.4101 24.2344 20.5195C24.2344 19.6289 23.5078 18.914 22.6172 18.914ZM5.90625 3.98434C6.91406 2.39059 8.0625 1.75777 9.66797 1.87496C11.8242 2.02731 13.4531 3.91402 13.3008 6.07027C13.1484 8.22652 11.2734 9.73824 9.10547 9.70309C6.32812 9.64449 4.13672 7.81637 3.28125 6.11715C4.45313 5.89449 5.27344 4.99215 5.90625 3.98434ZM28.9453 12.1992C28.0898 10.8046 26.2734 8.43746 25.3711 7.27731L27.75 3.7734H21.1641L23.5313 7.26559C22.6289 8.41402 20.8008 10.7929 19.9453 12.1992C19.5586 12.832 19.125 13.5468 19.125 14.707C19.125 16.5117 20.4961 17.9882 22.1836 17.9882H26.6953C28.3828 17.9882 29.7539 16.5117 29.7539 14.707C29.7656 13.5468 29.332 12.832 28.9453 12.1992ZM24.8203 15.2812V15.914H24.0352V15.2578C23.625 15.164 23.2383 14.9648 22.8867 14.6367L23.4844 13.9804C23.4844 13.9804 23.918 14.3554 24.3281 14.414C24.7969 14.4843 25.0781 14.2617 25.1133 13.9687C25.1719 13.4179 24.0938 13.207 23.707 12.9961C23.2383 12.75 22.7813 12.4101 22.7813 11.6953C22.7813 10.9687 23.2852 10.4296 24.0469 10.3593V9.67965H24.832V10.3828C25.3242 10.4882 25.6641 10.7578 25.9336 10.957L25.3945 11.6601C25.2305 11.5078 24.9141 11.3086 24.6211 11.2382C24.2461 11.1445 23.8359 11.25 23.8125 11.6601C23.8008 11.8242 23.8711 12.164 24.6914 12.4101C25.125 12.5507 26.1328 12.8437 26.1328 13.8984C26.1211 14.625 25.5703 15.1992 24.8203 15.2812Z" fill="white"/>
</svg>
