<svg width="301" height="59" viewBox="0 0 301 59" fill="none" xmlns="http://www.w3.org/2000/svg">
<path d="M65.1572 12.0918H75.6061L84.4697 33.7054H84.8788L93.7425 12.0918H104.192V47.0009H95.9754V25.5577H95.6856L87.2993 46.7793H82.0493L73.6629 25.4384H73.3731V47.0009H65.1572V12.0918ZM116.835 47.4441C115.165 47.4441 113.682 47.1657 112.386 46.6089C111.102 46.0407 110.085 45.1884 109.335 44.052C108.596 42.9043 108.227 41.4668 108.227 39.7395C108.227 38.285 108.483 37.0577 108.994 36.0577C109.505 35.0577 110.21 34.2452 111.108 33.6202C112.005 32.9952 113.04 32.5236 114.21 32.2054C115.38 31.8759 116.63 31.6543 117.96 31.5407C119.449 31.4043 120.647 31.2623 121.557 31.1145C122.466 30.9554 123.125 30.7339 123.534 30.4498C123.954 30.1543 124.165 29.7395 124.165 29.2054V29.1202C124.165 28.2452 123.863 27.5691 123.261 27.0918C122.659 26.6145 121.846 26.3759 120.824 26.3759C119.721 26.3759 118.835 26.6145 118.165 27.0918C117.494 27.5691 117.068 28.2282 116.886 29.0691L109.199 28.7964C109.426 27.2054 110.011 25.785 110.954 24.535C111.909 23.2736 113.216 22.285 114.875 21.5691C116.545 20.8418 118.551 20.4782 120.892 20.4782C122.562 20.4782 124.102 20.677 125.511 21.0748C126.92 21.4611 128.147 22.0293 129.193 22.7793C130.238 23.5179 131.045 24.427 131.613 25.5066C132.193 26.5861 132.483 27.8191 132.483 29.2054V47.0009H124.642V43.3532H124.437C123.971 44.2395 123.375 44.9895 122.647 45.6032C121.932 46.2168 121.085 46.677 120.108 46.9839C119.142 47.2907 118.051 47.4441 116.835 47.4441ZM119.409 41.9895C120.307 41.9895 121.113 41.8077 121.829 41.4441C122.557 41.0804 123.136 40.5804 123.568 39.9441C124 39.2964 124.216 38.5464 124.216 37.6941V35.2054C123.977 35.3304 123.687 35.4441 123.346 35.5464C123.017 35.6486 122.653 35.7452 122.255 35.8361C121.858 35.927 121.449 36.0066 121.028 36.0748C120.608 36.1429 120.204 36.2054 119.818 36.2623C119.034 36.3873 118.363 36.5804 117.807 36.8418C117.261 37.1032 116.841 37.4441 116.545 37.8645C116.261 38.2736 116.119 38.7623 116.119 39.3304C116.119 40.1941 116.426 40.8532 117.04 41.3077C117.665 41.7623 118.454 41.9895 119.409 41.9895ZM145.915 32.0691V47.0009H137.579V20.8191H145.505V25.6259H145.795C146.375 24.0236 147.363 22.7679 148.761 21.8589C150.159 20.9384 151.824 20.4782 153.755 20.4782C155.596 20.4782 157.193 20.8929 158.545 21.7225C159.909 22.5407 160.966 23.6884 161.716 25.1657C162.477 26.6316 162.852 28.3475 162.841 30.3134V47.0009H154.505V31.9498C154.517 30.4952 154.147 29.3589 153.397 28.5407C152.659 27.7225 151.63 27.3134 150.312 27.3134C149.437 27.3134 148.665 27.5066 147.994 27.8929C147.335 28.2679 146.824 28.8077 146.46 29.5123C146.108 30.2168 145.926 31.0691 145.915 32.0691ZM239.405 20.8191V26.9554H222.888V20.8191H239.405ZM226.348 14.5464H234.683V38.7679C234.683 39.2793 234.763 39.6941 234.922 40.0123C235.092 40.3191 235.336 40.5407 235.655 40.677C235.973 40.802 236.353 40.8645 236.797 40.8645C237.115 40.8645 237.45 40.8361 237.802 40.7793C238.166 40.7111 238.439 40.6543 238.62 40.6089L239.882 46.6259C239.484 46.7395 238.922 46.8816 238.194 47.052C237.478 47.2225 236.62 47.3304 235.62 47.3759C233.666 47.4668 231.99 47.2395 230.592 46.6941C229.206 46.1373 228.143 45.2736 227.405 44.1032C226.677 42.9327 226.325 41.4611 226.348 39.6884V14.5464ZM252.555 32.0691V47.0009H244.22V12.0918H252.282V25.6259H252.572C253.163 24.0123 254.129 22.7509 255.47 21.8418C256.822 20.9327 258.476 20.4782 260.43 20.4782C262.271 20.4782 263.873 20.8873 265.237 21.7054C266.601 22.5123 267.657 23.6543 268.407 25.1316C269.169 26.6089 269.544 28.3361 269.532 30.3134V47.0009H261.197V31.9498C261.209 30.4952 260.845 29.3589 260.106 28.5407C259.368 27.7225 258.328 27.3134 256.987 27.3134C256.112 27.3134 255.339 27.5066 254.669 27.8929C254.01 28.2679 253.493 28.8077 253.118 29.5123C252.754 30.2168 252.567 31.0691 252.555 32.0691ZM282.116 47.4441C280.446 47.4441 278.963 47.1657 277.667 46.6089C276.383 46.0407 275.366 45.1884 274.616 44.052C273.878 42.9043 273.508 41.4668 273.508 39.7395C273.508 38.285 273.764 37.0577 274.275 36.0577C274.787 35.0577 275.491 34.2452 276.389 33.6202C277.287 32.9952 278.321 32.5236 279.491 32.2054C280.662 31.8759 281.912 31.6543 283.241 31.5407C284.73 31.4043 285.929 31.2623 286.838 31.1145C287.747 30.9554 288.406 30.7339 288.815 30.4498C289.236 30.1543 289.446 29.7395 289.446 29.2054V29.1202C289.446 28.2452 289.145 27.5691 288.542 27.0918C287.94 26.6145 287.128 26.3759 286.105 26.3759C285.003 26.3759 284.116 26.6145 283.446 27.0918C282.775 27.5691 282.349 28.2282 282.167 29.0691L274.48 28.7964C274.707 27.2054 275.292 25.785 276.236 24.535C277.19 23.2736 278.497 22.285 280.156 21.5691C281.826 20.8418 283.832 20.4782 286.173 20.4782C287.844 20.4782 289.383 20.677 290.792 21.0748C292.201 21.4611 293.429 22.0293 294.474 22.7793C295.52 23.5179 296.326 24.427 296.895 25.5066C297.474 26.5861 297.764 27.8191 297.764 29.2054V47.0009H289.923V43.3532H289.719C289.253 44.2395 288.656 44.9895 287.929 45.6032C287.213 46.2168 286.366 46.677 285.389 46.9839C284.423 47.2907 283.332 47.4441 282.116 47.4441ZM284.69 41.9895C285.588 41.9895 286.395 41.8077 287.111 41.4441C287.838 41.0804 288.417 40.5804 288.849 39.9441C289.281 39.2964 289.497 38.5464 289.497 37.6941V35.2054C289.258 35.3304 288.969 35.4441 288.628 35.5464C288.298 35.6486 287.934 35.7452 287.537 35.8361C287.139 35.927 286.73 36.0066 286.309 36.0748C285.889 36.1429 285.486 36.2054 285.099 36.2623C284.315 36.3873 283.645 36.5804 283.088 36.8418C282.542 37.1032 282.122 37.4441 281.826 37.8645C281.542 38.2736 281.4 38.7623 281.4 39.3304C281.4 40.1941 281.707 40.8532 282.321 41.3077C282.946 41.7623 283.736 41.9895 284.69 41.9895Z" fill="white"/>
<path d="M175.518 40.1316L175.552 30.1941H176.711L184.075 20.8191H193.518L182.575 34.2509H180.376L175.518 40.1316ZM168.001 47.0009V12.0918H176.336V47.0009H168.001ZM184.263 47.0009L177.41 36.1259L182.899 30.2111L193.893 47.0009H184.263ZM203.882 47.4441C202.211 47.4441 200.728 47.1657 199.433 46.6089C198.149 46.0407 197.132 45.1884 196.382 44.052C195.643 42.9043 195.274 41.4668 195.274 39.7395C195.274 38.285 195.53 37.0577 196.041 36.0577C196.552 35.0577 197.257 34.2452 198.155 33.6202C199.052 32.9952 200.086 32.5236 201.257 32.2054C202.427 31.8759 203.677 31.6543 205.007 31.5407C206.495 31.4043 207.694 31.2623 208.603 31.1145C209.513 30.9554 210.172 30.7339 210.581 30.4498C211.001 30.1543 211.211 29.7395 211.211 29.2054V29.1202C211.211 28.2452 210.91 27.5691 210.308 27.0918C209.706 26.6145 208.893 26.3759 207.87 26.3759C206.768 26.3759 205.882 26.6145 205.211 27.0918C204.541 27.5691 204.115 28.2282 203.933 29.0691L196.245 28.7964C196.473 27.2054 197.058 25.785 198.001 24.535C198.956 23.2736 200.263 22.285 201.922 21.5691C203.592 20.8418 205.598 20.4782 207.939 20.4782C209.609 20.4782 211.149 20.677 212.558 21.0748C213.967 21.4611 215.194 22.0293 216.24 22.7793C217.285 23.5179 218.092 24.427 218.66 25.5066C219.24 26.5861 219.53 27.8191 219.53 29.2054V47.0009H211.689V43.3532H211.484C211.018 44.2395 210.422 44.9895 209.694 45.6032C208.978 46.2168 208.132 46.677 207.155 46.9839C206.189 47.2907 205.098 47.4441 203.882 47.4441ZM206.456 41.9895C207.353 41.9895 208.16 41.8077 208.876 41.4441C209.603 41.0804 210.183 40.5804 210.615 39.9441C211.047 39.2964 211.263 38.5464 211.263 37.6941V35.2054C211.024 35.3304 210.734 35.4441 210.393 35.5464C210.064 35.6486 209.7 35.7452 209.302 35.8361C208.905 35.927 208.495 36.0066 208.075 36.0748C207.655 36.1429 207.251 36.2054 206.865 36.2623C206.081 36.3873 205.41 36.5804 204.853 36.8418C204.308 37.1032 203.888 37.4441 203.592 37.8645C203.308 38.2736 203.166 38.7623 203.166 39.3304C203.166 40.1941 203.473 40.8532 204.086 41.3077C204.711 41.7623 205.501 41.9895 206.456 41.9895Z" fill="#1EA8DF"/>
<path d="M23.2579 0.741128C9.55233 3.64836 0 15.5888 0 29.8134C0 38.5351 3.01106 44.8687 9.86382 51.0985C26.1651 65.7385 51.9149 58.2628 58.0408 37.393C60.3251 29.3981 59.5982 27.5292 52.7455 24.7258C45.4774 21.7147 45.1659 19.2228 51.3957 13.5122C61.9863 3.85602 61.9863 3.75219 58.2485 1.57177C55.3412 0.01432 29.7991 -0.608658 23.2579 0.741128Z" fill="white"/>
<path d="M30.8571 53.4625C30.4 53.8925 28.7619 54 28 54C28.9143 54.0001 30.2857 53.2833 30.8571 52.9248C32.1905 52.2082 35.2 50.6674 36.5714 50.2374C37.9429 49.8074 39.4286 50.0583 40 50.2374C38.6286 50.2374 36.7619 50.9541 36 51.3124C34.4762 51.85 31.3143 53.0325 30.8571 53.4625Z" fill="#1EA8DF"/>
<path d="M15.5 49C12.7 49 10.6667 47 10 46L12 47.5C14 48.7 18.1667 48.6667 20 48.5C20 48.9 17 49 15.5 49Z" fill="#1EA8DF"/>
<path d="M30.8638 17.3718C30.8304 17.4 30.7943 17.4269 30.7545 17.4534ZM30.8638 17.3718C30.9351 17.3577 30.9979 17.3453 31.0521 17.3352C31.0315 17.2755 31.0257 17.2255 31.0238 17.2017C30.9749 17.2666 30.9236 17.3214 30.8638 17.3718ZM30.8638 17.3718L30.7545 17.4534ZM32.938 16.1379C32.9505 16.1455 32.9637 16.1527 32.9776 16.1594C32.9791 16.1545 32.9807 16.1496 32.9823 16.1445L32.9442 16.1169C32.9422 16.1239 32.9401 16.1309 32.938 16.1379ZM32.9453 16.1134L32.983 16.1423C32.992 16.1141 33.0024 16.0824 33.0142 16.047C33.0146 16.0457 33.0151 16.0443 33.0155 16.043C33.0191 16.029 33.0221 16.0157 33.0246 16.0034L33.0262 15.9958L33.0598 15.8402L33.0613 15.8332C33.0495 15.8304 33.0379 15.8281 33.0264 15.8262C33.0252 15.8308 33.0239 15.8355 33.0227 15.8402C33.0066 15.8994 32.9886 15.9638 32.969 16.0319C32.9613 16.0585 32.9534 16.0857 32.9453 16.1134ZM30.7525 17.4547C30.713 17.4809 30.6699 17.5067 30.6221 17.5332L30.766 17.5239L30.7525 17.4547Z" fill="white"/>
<path d="M30.8638 17.3718C30.8304 17.4 30.7943 17.4269 30.7545 17.4534M30.8638 17.3718C30.9351 17.3577 30.9979 17.3453 31.0521 17.3352C31.0315 17.2755 31.0257 17.2255 31.0238 17.2017C30.9749 17.2666 30.9236 17.3214 30.8638 17.3718ZM30.8638 17.3718L30.7545 17.4534M30.7545 17.4534L30.7679 17.5238M32.938 16.1379C32.9505 16.1455 32.9637 16.1527 32.9776 16.1594C32.9791 16.1545 32.9807 16.1496 32.9823 16.1445L32.9442 16.1169C32.9422 16.1239 32.9401 16.1309 32.938 16.1379ZM32.9453 16.1134L32.983 16.1423C32.992 16.1141 33.0024 16.0824 33.0142 16.047C33.0146 16.0457 33.0151 16.0443 33.0155 16.043C33.0191 16.029 33.0221 16.0157 33.0246 16.0034L33.0262 15.9958L33.0598 15.8402L33.0613 15.8332C33.0495 15.8304 33.0379 15.8281 33.0264 15.8262C33.0252 15.8308 33.0239 15.8355 33.0227 15.8402C33.0066 15.8994 32.9886 15.9638 32.969 16.0319C32.9613 16.0585 32.9534 16.0857 32.9453 16.1134ZM30.7525 17.4547C30.713 17.4809 30.6699 17.5067 30.6221 17.5332L30.766 17.5239L30.7525 17.4547Z" stroke="white"/>
<path d="M30.6748 17.1671C30.5551 17.2542 30.3374 17.3304 30.185 17.3304C29.7279 17.3304 29.3905 17.5699 29.0966 18.0815C28.9442 18.3428 28.6939 18.604 28.5415 18.6476C28.2803 18.7455 28.2803 18.7346 28.4871 18.5822C28.868 18.3101 28.9769 18.1904 28.9769 18.0924C28.9769 18.0271 28.8789 18.038 28.7701 18.1142C28.5959 18.223 28.4653 18.2013 28.0735 18.0053C27.6599 17.7985 27.2354 17.6896 27.2354 17.7985C27.2354 17.8203 27.4422 18.0597 27.7034 18.3319C28.4435 19.1265 28.8463 19.1265 29.3578 18.2992C29.5537 17.9944 29.8041 17.7985 30.2177 17.6134C30.5333 17.4719 30.8272 17.276 30.8599 17.178C30.9469 16.9712 30.9361 16.9712 30.6748 17.1671Z" fill="white"/>
<path d="M34.7666 18.3104C34.7666 18.5172 34.7884 18.6043 34.821 18.4954C34.8428 18.3975 34.8428 18.2233 34.821 18.1144C34.7884 18.0165 34.7666 18.1036 34.7666 18.3104Z" fill="white"/>
<path d="M26.6358 18.2023C26.7555 18.2459 27.0494 18.4854 27.2889 18.7357C27.5392 19.0079 27.8113 19.182 27.9637 19.182C28.1052 19.182 28.2141 19.2147 28.2141 19.2691C28.2141 19.3127 28.41 19.3344 28.6385 19.3127C28.9107 19.28 29.2481 19.3562 29.5746 19.4977C29.8794 19.6283 30.3039 19.7263 30.5977 19.7154L31.0984 19.7045L30.663 19.563C30.4236 19.4868 30.0209 19.3127 29.7596 19.182C29.3134 18.9426 28.9107 18.9426 28.3556 19.1494C28.2358 19.1929 28.2032 19.1712 28.2576 19.095C28.3011 19.0079 28.2576 18.9643 28.1379 18.9643C28.029 18.9643 27.7678 18.7684 27.5501 18.5289C27.2345 18.1806 27.0821 18.0935 26.7882 18.1044C26.4834 18.1044 26.4617 18.1261 26.6358 18.2023Z" fill="white"/>
<path d="M25.8851 18.7351C25.6892 18.8113 25.6892 18.8222 25.8633 18.8875C25.9722 18.9311 26.1899 18.9637 26.364 18.9637C26.5273 18.9637 26.8429 19.0399 27.0715 19.1379C27.5939 19.3447 27.6592 19.2794 27.2674 18.9202C26.9518 18.6263 26.3531 18.5501 25.8851 18.7351Z" fill="white"/>
<path d="M24.8942 19.3004C24.9486 19.4528 26.1024 20.0515 26.3527 20.0515C26.5704 20.0515 26.4724 19.8882 26.1133 19.6378C25.9173 19.5072 25.6017 19.3984 25.4275 19.3984C25.2425 19.3984 25.0357 19.3331 24.9595 19.2569C24.8507 19.148 24.8398 19.1589 24.8942 19.3004Z" fill="white"/>
<path d="M33.8964 20.2924C33.8746 20.8693 33.8964 20.9237 34.1032 20.9237C34.3644 20.9237 34.7018 21.087 35.0719 21.4027C35.2243 21.5224 35.1916 21.468 34.9957 21.2721C34.7998 21.0761 34.4841 20.8911 34.31 20.8584C34.0161 20.7931 33.9943 20.7496 33.9508 20.2271L33.9182 19.6719L33.8964 20.2924Z" fill="white"/>
<mask id="mask0_166_9" style="mask-type:luminance" maskUnits="userSpaceOnUse" x="33" y="19" width="3" height="3">
<path d="M33.8964 20.2924C33.8746 20.8693 33.8964 20.9237 34.1032 20.9237C34.3644 20.9237 34.7018 21.087 35.0719 21.4027C35.2243 21.5224 35.1916 21.468 34.9957 21.2721C34.7998 21.0761 34.4841 20.8911 34.31 20.8584C34.0161 20.7931 33.9943 20.7496 33.9508 20.2271L33.9182 19.6719L33.8964 20.2924Z" fill="white"/>
</mask>
<g mask="url(#mask0_166_9)">
<path d="M33.8963 20.2925L34.8957 20.3275L34.8956 20.3302L33.8963 20.2925ZM35.0718 21.4028L34.4539 22.1891L34.4381 22.1767L34.4228 22.1636L35.0718 21.4028ZM34.3099 20.8585L34.1256 21.8414L34.1092 21.8383L34.0929 21.8347L34.3099 20.8585ZM33.9507 20.2272L32.9542 20.3102L32.9531 20.298L32.9524 20.2859L33.9507 20.2272ZM33.9181 19.672L32.9187 19.6369L34.9163 19.6133L33.9181 19.672ZM34.8956 20.3302C34.8901 20.4743 34.8887 20.5576 34.89 20.6089C34.8918 20.6778 34.8978 20.6138 34.8627 20.5083C34.8412 20.4438 34.798 20.3437 34.7126 20.24C34.6222 20.1305 34.5116 20.0497 34.3973 19.9973C34.2923 19.9492 34.2041 19.934 34.1614 19.9285C34.1199 19.9232 34.094 19.9238 34.1031 19.9238V21.9238C34.05 21.9238 33.8116 21.929 33.5636 21.8153C33.2286 21.6616 33.047 21.3859 32.9653 21.1407C32.9015 20.9495 32.8933 20.7637 32.8907 20.6601C32.8876 20.539 32.8915 20.3991 32.897 20.2548L34.8956 20.3302ZM34.1031 19.9238C34.7288 19.9238 35.2976 20.281 35.7208 20.642L34.4228 22.1636C34.2839 22.0451 34.1762 21.9771 34.1054 21.9423C34.029 21.9047 34.033 21.9238 34.1031 21.9238V19.9238ZM35.6897 20.6165C35.7314 20.6493 35.7035 20.6237 35.6448 20.5905C35.6281 20.581 35.5756 20.5516 35.5016 20.5248C35.4648 20.5114 35.3943 20.4882 35.302 20.4754C35.2223 20.4643 35.0335 20.447 34.8131 20.5302C34.5434 20.632 34.3212 20.8502 34.2217 21.1395C34.1402 21.3765 34.1701 21.5768 34.1873 21.6615C34.2215 21.8298 34.2923 21.9457 34.3024 21.9628C34.3583 22.058 34.4163 22.1134 34.3746 22.068C34.36 22.052 34.3324 22.0231 34.2885 21.9792L35.7028 20.5651C35.7568 20.6192 35.8068 20.6706 35.8486 20.7162C35.8634 20.7323 35.9567 20.8306 36.0263 20.9489C36.0397 20.9718 36.1126 21.0923 36.1474 21.2639C36.1649 21.3503 36.1949 21.5519 36.113 21.7899C36.0132 22.0802 35.7902 22.2991 35.5196 22.4013C35.2981 22.4849 35.1079 22.4677 35.0265 22.4563C34.9324 22.4432 34.8598 22.4195 34.8206 22.4053C34.7418 22.3767 34.683 22.3442 34.6587 22.3305C34.5694 22.2799 34.4883 22.2161 34.4539 22.1891L35.6897 20.6165ZM34.2885 21.9792C34.2773 21.968 34.2564 21.9493 34.2259 21.9262C34.196 21.9035 34.1633 21.8815 34.1314 21.8624C34.0988 21.8429 34.0745 21.831 34.0621 21.8255C34.0563 21.823 34.0573 21.8237 34.0648 21.8262C34.0713 21.8284 34.0924 21.8352 34.1256 21.8414L34.4942 19.8757C34.7549 19.9245 34.9979 20.0503 35.1577 20.1458C35.3376 20.2533 35.5347 20.3971 35.7028 20.5651L34.2885 21.9792ZM34.0929 21.8347C33.9858 21.8109 33.4571 21.7223 33.1656 21.2058C33.0542 21.0085 33.0155 20.8125 32.9968 20.6973C32.9769 20.5746 32.9647 20.4364 32.9542 20.3102L34.9473 20.1441C34.9585 20.2792 34.9654 20.3424 34.9709 20.3768C34.9778 20.4188 34.9711 20.3357 34.9073 20.2227C34.8706 20.1577 34.8194 20.0899 34.7519 20.0284C34.6857 19.9682 34.6213 19.9299 34.5734 19.9066C34.5288 19.8849 34.4972 19.8756 34.4937 19.8746C34.4904 19.8736 34.4973 19.8758 34.5268 19.8823L34.0929 21.8347ZM32.9524 20.2859L32.9198 19.7307L34.9163 19.6133L34.949 20.1684L32.9524 20.2859ZM34.9174 19.7071L34.8957 20.3275L32.8969 20.2574L32.9187 19.6369L34.9174 19.7071Z" fill="white"/>
</g>
<path d="M29.074 22.1967C28.9325 22.3709 28.9434 22.3818 29.1176 22.2403C29.2917 22.0988 29.3462 22.0117 29.2591 22.0117C29.2373 22.0117 29.1502 22.0988 29.074 22.1967Z" fill="white"/>
<path d="M35.8339 22.9364C35.9754 23.1759 36.1713 23.644 36.2692 23.9705C36.4978 24.6672 36.5849 24.7108 37.8475 24.7108L38.7182 24.6999L37.608 24.591C36.7917 24.5148 36.4869 24.4495 36.4869 24.3407C36.4869 24.0794 36.0515 23.0453 35.823 22.7731C35.6053 22.5228 35.6162 22.5337 35.8339 22.9364Z" fill="white"/>
<mask id="mask1_166_9" style="mask-type:luminance" maskUnits="userSpaceOnUse" x="35" y="22" width="4" height="3">
<path d="M35.8339 22.9364C35.9754 23.1759 36.1713 23.644 36.2692 23.9705C36.4978 24.6672 36.5849 24.7108 37.8475 24.7108L38.7182 24.6999L37.608 24.591C36.7917 24.5148 36.4869 24.4495 36.4869 24.3407C36.4869 24.0794 36.0515 23.0453 35.823 22.7731C35.6053 22.5228 35.6162 22.5337 35.8339 22.9364Z" fill="white"/>
</mask>
<g mask="url(#mask1_166_9)">
<path d="M35.8339 22.9364L34.9729 23.4451L34.9632 23.4287L34.9541 23.4119L35.8339 22.9364ZM36.2692 23.9705L35.3191 24.2823L35.3151 24.2701L35.3114 24.2579L36.2692 23.9705ZM37.8475 24.7108L37.86 25.7108H37.8475V24.7108ZM38.7182 24.6999L38.8158 23.7047L38.7307 25.6998L38.7182 24.6999ZM37.608 24.591L37.701 23.5953L37.7056 23.5958L37.608 24.591ZM35.823 22.7731L36.5776 22.117L36.5832 22.1234L36.5887 22.13L35.823 22.7731ZM36.6948 22.4277C36.8869 22.7528 37.1119 23.2993 37.2271 23.6832L35.3114 24.2579C35.2307 23.9887 35.0638 23.599 34.9729 23.4451L36.6948 22.4277ZM37.2194 23.6588C37.2465 23.7415 37.2656 23.796 37.2814 23.836C37.297 23.8758 37.3023 23.8828 37.2966 23.8731C37.2891 23.8603 37.2668 23.8258 37.2252 23.7862C37.1819 23.745 37.1358 23.7156 37.0964 23.6971C37.0356 23.6685 37.0277 23.6842 37.1792 23.6962C37.3232 23.7076 37.527 23.7108 37.8475 23.7108V25.7108C37.5366 25.7108 37.2561 25.7085 37.0215 25.69C36.7944 25.672 36.5138 25.6333 36.2448 25.5067C35.5929 25.1999 35.4133 24.5695 35.3191 24.2823L37.2194 23.6588ZM37.835 23.7108L38.7057 23.7L38.7307 25.6998L37.86 25.7108L37.835 23.7108ZM38.6206 25.6951L37.5104 25.5863L37.7056 23.5958L38.8158 23.7047L38.6206 25.6951ZM37.5151 25.5867C37.1089 25.5488 36.7716 25.509 36.5252 25.4544C36.4118 25.4294 36.2359 25.3845 36.0671 25.2922C35.9208 25.2121 35.4869 24.9263 35.4869 24.3407H37.4869C37.4869 24.0981 37.3951 23.8949 37.2811 23.7531C37.1802 23.6276 37.0741 23.5633 37.0275 23.5378C36.9414 23.4907 36.8926 23.4874 36.9575 23.5017C37.0676 23.5261 37.2908 23.557 37.701 23.5953L37.5151 25.5867ZM35.4869 24.3407C35.4869 24.4217 35.5002 24.4642 35.4931 24.4332C35.4892 24.4159 35.4801 24.382 35.4634 24.3301C35.4302 24.2271 35.3799 24.0932 35.3195 23.9502C35.2594 23.8079 35.1951 23.6705 35.1373 23.5601C35.0697 23.431 35.0408 23.3967 35.0572 23.4163L36.5887 22.13C36.7195 22.2857 36.8307 22.4827 36.909 22.6322C36.9971 22.8004 37.0845 22.9889 37.1618 23.1718C37.2388 23.354 37.3116 23.5446 37.3673 23.7175C37.4082 23.8446 37.4869 24.0981 37.4869 24.3407H35.4869ZM35.0683 23.4293C35.0402 23.3969 35.0188 23.3723 35.001 23.352C34.9923 23.3421 34.9856 23.3346 34.9805 23.3289C34.9752 23.323 34.973 23.3207 34.9732 23.3209C34.9734 23.3211 34.9749 23.3227 34.9774 23.3252C34.9798 23.3277 34.9843 23.3323 34.9905 23.3382C34.9964 23.344 35.031 23.3777 35.0832 23.4158C35.1079 23.4339 35.1657 23.4747 35.2477 23.5129C35.302 23.5381 35.5204 23.638 35.813 23.5947C35.9823 23.5697 36.1666 23.4973 36.3265 23.3566C36.4813 23.2203 36.5649 23.0628 36.6086 22.9387C36.6856 22.7199 36.6637 22.5358 36.6574 22.4858C36.6418 22.361 36.6047 22.2699 36.6023 22.2636C36.5924 22.2377 36.5843 22.2204 36.5831 22.218C36.5804 22.2122 36.5824 22.2168 36.595 22.2408C36.6196 22.2875 36.656 22.3544 36.7136 22.4609L34.9541 23.4119C34.9029 23.317 34.8563 23.2315 34.8244 23.1708C34.8088 23.141 34.7892 23.1031 34.7716 23.0655C34.763 23.0472 34.7491 23.0167 34.7351 22.9801C34.7286 22.9633 34.6892 22.8641 34.6729 22.7339C34.6663 22.6812 34.6445 22.495 34.722 22.2748C34.7659 22.15 34.8499 21.9919 35.0052 21.8552C35.1655 21.7141 35.3504 21.6414 35.5204 21.6162C35.8143 21.5728 36.0345 21.6731 36.0911 21.6994C36.1752 21.7385 36.2357 21.781 36.2636 21.8013C36.356 21.8689 36.4255 21.9458 36.4312 21.9519C36.4742 21.9976 36.5311 22.0635 36.5776 22.117L35.0683 23.4293Z" fill="#FFEAEA"/>
</g>
<path d="M39.371 23.5472C39.3275 23.667 39.3275 23.7976 39.3601 23.8302C39.3928 23.8738 39.4255 23.8194 39.4255 23.7105C39.4255 23.5908 39.4908 23.5363 39.6214 23.5581C39.7302 23.5799 39.7955 23.6778 39.7738 23.8085C39.752 24.0262 39.752 24.0262 39.8717 23.8194C39.9806 23.6452 39.9588 23.5799 39.7955 23.4601C39.5343 23.2642 39.4472 23.2751 39.371 23.5472Z" fill="white"/>
<path d="M38.9249 24.5378C38.7181 24.7882 38.7182 24.7882 38.9467 24.5922C39.2624 24.331 39.5235 24.3636 39.6432 24.6902C39.7956 25.0712 39.7738 25.1801 39.5453 25.4957C39.3602 25.7352 39.3058 25.7461 39.0337 25.6155C38.7725 25.4957 38.7508 25.5066 38.8814 25.6481C39.3603 26.2468 40.1331 25.2345 39.7522 24.5052C39.5998 24.2221 39.1752 24.2439 38.9249 24.5378Z" fill="white"/>
<path d="M38.3588 26.137C38.1302 26.6813 38.1302 26.6813 37.7928 26.5724C37.1615 26.3438 37.3357 26.5724 38.054 26.899C38.9683 27.3126 39.2078 27.3888 39.2078 27.2473C39.2078 27.1929 39.1098 27.1058 38.9901 27.0731C38.7289 26.9861 38.718 26.9099 38.9357 26.3982C39.1207 25.9519 39.1316 25.8975 39.001 25.9737C38.9574 26.0064 38.8486 26.2567 38.7724 26.5289C38.6309 27.0405 38.5982 27.0731 38.3479 26.9207C38.2173 26.8337 38.2282 26.7357 38.4241 26.2458C38.5547 25.9302 38.6527 25.658 38.6309 25.6362C38.6091 25.6145 38.4894 25.8431 38.3588 26.137Z" fill="white"/>
<path d="M18.1577 40.8322C17.9182 41.0935 16.9277 41.5071 15.6434 41.8881C13.8257 42.4106 12.7372 43.0638 12.193 43.9455C11.9209 44.4027 11.9427 44.5442 12.2474 44.1414C12.8243 43.3577 13.8039 42.8243 15.9808 42.1058C17.2542 41.6813 18.1032 41.2241 18.31 40.854C18.4515 40.571 18.3971 40.5601 18.1577 40.8322Z" fill="white"/>
<path d="M20.2471 40.8103C20.3124 40.8321 20.4431 40.8321 20.5192 40.8103C20.5846 40.7777 20.5301 40.7559 20.3778 40.7559C20.2254 40.7559 20.1709 40.7777 20.2471 40.8103Z" fill="white"/>
<path d="M20.9222 41.2238C16.9929 42.2579 17.0256 42.247 17.5698 42.2579C18.4949 42.2579 20.8024 41.6592 22.1521 41.0605C22.8052 40.7666 22.4786 40.8101 20.9222 41.2238Z" fill="white"/>
<path d="M37.2484 47.1023C36.1818 47.2982 35.3546 47.5486 29.9668 49.2467C27.4851 50.0196 25.0144 50.7598 24.4702 50.8796C23.0443 51.1844 19.3871 51.2714 17.5912 51.032C15.2075 50.7163 13.4443 50.172 12.2361 49.3774L11.5068 48.8984L12.0837 49.4427C12.715 50.0414 13.7599 50.5857 15.0769 51.0102C17.232 51.7069 21.2484 52.2076 24.8946 52.2076C27.1259 52.2185 27.5178 52.1858 28.5192 51.9681C30.2715 51.5762 32.209 50.9122 34.5818 49.9108C39.5233 47.799 40.6335 47.5051 41.6457 48.0167C42.0593 48.2344 42.0593 48.2344 41.8634 48.0167C41.5913 47.7228 40.4702 47.2003 39.7736 47.0587C39.0335 46.9064 38.2716 46.9172 37.2484 47.1023ZM40.6444 47.5051C41.0362 47.6466 41.0253 47.6466 40.1002 47.6466C38.9355 47.6466 37.6729 48.0276 34.3097 49.3882C29.6729 51.2606 26.5491 51.9572 23.0225 51.9355L21.5205 51.9246L22.7722 51.7722C24.8076 51.5327 24.579 51.598 33.4933 48.6807C35.2892 48.0929 37.1069 47.5377 37.5205 47.4397C38.4022 47.2438 40.024 47.2765 40.6444 47.5051Z" fill="white"/>
<path d="M23.0758 6.1854C14.3527 7.72003 7.25755 15.9156 5.43884 26.5383C5.06837 28.7259 4.98978 29.7164 5.00101 32.1979C5.00101 34.255 5.04591 35.0604 5.24799 36.3011C5.6746 39.0548 6.59518 42.1567 7.63925 44.4205C8.08831 45.411 8.95276 47 9.02011 47C9.04257 47 8.78436 46.4123 8.45879 45.7048C4.39477 37.0195 4.65298 25.7982 9.0987 17.7223C12.4442 11.66 17.5186 7.73091 23.3003 6.74047C24.9281 6.45749 27.499 6.49014 29.1269 6.82755C34.9198 8.00301 39.7697 11.8886 43.0254 17.94C46.079 23.6432 47.123 30.5327 46.0004 37.716C45.5738 40.4588 44.642 43.5063 43.5418 45.781C43.2274 46.4123 42.9917 46.9456 43.0141 46.9565C43.0366 46.9782 43.3622 46.3687 43.7551 45.6177C45 44 46.427 39.0874 46.8648 35.4087C47.0894 33.5693 47.022 29.3028 46.7526 27.5614C45.6748 20.6501 42.8233 14.9905 38.3663 10.9417C36.8058 9.52675 35.4811 8.62339 33.7185 7.77444C31.0578 6.50103 29.2953 6.07656 26.3651 6.01126C24.6475 5.9786 24.0749 6.01125 23.0758 6.1854Z" fill="#020202"/>
<path d="M23.0758 6.1854C14.3527 7.72003 7.25755 15.9156 5.43884 26.5383C5.06837 28.7259 4.98978 29.7164 5.00101 32.1979C5.00101 34.255 5.04591 35.0604 5.24799 36.3011C5.6746 39.0548 6.59518 42.1567 7.63925 44.4205C8.08831 45.411 8.95276 47 9.02011 47C9.04257 47 8.78436 46.4123 8.45879 45.7048C4.39477 37.0195 4.65298 25.7982 9.0987 17.7223C12.4442 11.66 17.5186 7.73091 23.3003 6.74047C24.9281 6.45749 27.499 6.49014 29.1269 6.82755C34.9198 8.00301 39.7697 11.8886 43.0254 17.94C46.079 23.6432 47.123 30.5327 46.0004 37.716C45.5738 40.4588 44.642 43.5063 43.5418 45.781C43.2274 46.4123 42.9917 46.9456 43.0141 46.9565C43.0366 46.9782 43.3622 46.3687 43.7551 45.6177C45 44 46.427 39.0874 46.8648 35.4087C47.0894 33.5693 47.022 29.3028 46.7526 27.5614C45.6748 20.6501 42.8233 14.9905 38.3663 10.9417C36.8058 9.52675 35.4811 8.62339 33.7185 7.77444C31.0578 6.50103 29.2953 6.07656 26.3651 6.01126C24.6475 5.9786 24.0749 6.01125 23.0758 6.1854Z" stroke="white"/>
<path d="M29.5615 17.0016C29.5281 17.0298 29.492 17.0567 29.4522 17.0832M29.5615 17.0016C29.6328 16.9875 29.6956 16.9751 29.7498 16.965C29.7292 16.9053 29.7234 16.8553 29.7215 16.8315C29.6726 16.8964 29.6213 16.9512 29.5615 17.0016ZM29.5615 17.0016L29.4522 17.0832M29.4522 17.0832L29.4656 17.1536L29.4522 17.0832ZM31.6358 15.7677C31.6482 15.7753 31.6614 15.7825 31.6753 15.7892C31.6768 15.7843 31.6784 15.7794 31.68 15.7744L31.642 15.7467C31.6399 15.7537 31.6378 15.7607 31.6358 15.7677ZM31.643 15.7432L31.6807 15.7721C31.6897 15.7439 31.7001 15.7122 31.7119 15.6768C31.7123 15.6755 31.7128 15.6741 31.7132 15.6728C31.7168 15.6588 31.7198 15.6455 31.7223 15.6332L31.7222 15.6332L31.7239 15.6256L31.7575 15.47L31.759 15.463C31.7472 15.4602 31.7356 15.4579 31.7241 15.456C31.7229 15.4606 31.7216 15.4653 31.7204 15.47C31.7043 15.5292 31.6863 15.5936 31.6667 15.6617C31.659 15.6884 31.6511 15.7155 31.643 15.7432ZM29.4502 17.0845C29.4107 17.1107 29.3676 17.1365 29.3198 17.163L29.4638 17.1537L29.4502 17.0845Z" fill="white" stroke="black"/>
<path d="M29.3711 16.798C29.2514 16.8851 29.0337 16.9613 28.8813 16.9613C28.4242 16.9613 28.0868 17.2007 27.7929 17.7124C27.6405 17.9736 27.3902 18.2349 27.2378 18.2784C26.9765 18.3764 26.9765 18.3655 27.1833 18.2131C27.5643 17.941 27.6731 17.8212 27.6731 17.7232C27.6731 17.6579 27.5752 17.6688 27.4663 17.745C27.2922 17.8539 27.1616 17.8321 26.7697 17.6362C26.3561 17.4293 25.9316 17.3205 25.9316 17.4293C25.9316 17.4511 26.1384 17.6906 26.3997 17.9627C27.1398 18.7574 27.5425 18.7574 28.0541 17.9301C28.25 17.6253 28.5004 17.4293 28.914 17.2443C29.2296 17.1028 29.5235 16.9068 29.5561 16.8089C29.6432 16.602 29.6323 16.602 29.3711 16.798Z" fill="black"/>
<path d="M33.4639 17.9416C33.4639 18.1485 33.4856 18.2355 33.5183 18.1267C33.5401 18.0287 33.5401 17.8546 33.5183 17.7457C33.4856 17.6477 33.4639 17.7348 33.4639 17.9416Z" fill="black"/>
<path d="M25.333 17.8337C25.4528 17.8773 25.7466 18.1168 25.9861 18.3671C26.2364 18.6393 26.5086 18.8134 26.6609 18.8134C26.8024 18.8134 26.9113 18.8461 26.9113 18.9005C26.9113 18.9441 27.1072 18.9658 27.3358 18.9441C27.6079 18.9114 27.9453 18.9876 28.2718 19.1291C28.5766 19.2597 29.0011 19.3577 29.295 19.3468L29.7956 19.3359L29.3603 19.1944C29.1208 19.1182 28.7181 18.9441 28.4569 18.8134C28.0106 18.574 27.6079 18.574 27.0528 18.7808C26.933 18.8243 26.9004 18.8026 26.9548 18.7264C26.9984 18.6393 26.9548 18.5957 26.8351 18.5957C26.7262 18.5957 26.465 18.3998 26.2473 18.1603C25.9317 17.812 25.7793 17.7249 25.4854 17.7358C25.1807 17.7358 25.1589 17.7575 25.333 17.8337Z" fill="black"/>
<path d="M24.5814 18.3672C24.3855 18.4434 24.3855 18.4543 24.5597 18.5196C24.6685 18.5632 24.8862 18.5958 25.0603 18.5958C25.2236 18.5958 25.5392 18.672 25.7678 18.77C26.2903 18.9768 26.3556 18.9115 25.9637 18.5523C25.6481 18.2584 25.0495 18.1822 24.5814 18.3672Z" fill="black"/>
<mask id="path-33-inside-1_166_9" fill="white">
<path d="M31.221 18.8897C31.1448 19.2381 30.8618 19.6408 30.7639 19.5537C30.7312 19.5102 30.8074 19.336 30.9489 19.151C31.2428 18.7482 31.1448 18.574 30.7965 18.8897C30.6659 19.0095 30.2959 19.2163 29.9693 19.3469C29.3271 19.619 28.6741 19.5973 28.0863 19.2925C27.6727 19.0748 27.6074 19.1074 27.8469 19.3687C28.119 19.6735 28.5652 19.8912 29.1203 20.0109C29.5775 20.1089 29.5775 20.1089 29.0115 20.0654C28.4455 20.0218 28.1299 19.8912 27.4877 19.4231C27.2918 19.2816 26.8455 19.1183 26.5081 19.053C26.1598 18.9877 25.7897 18.9006 25.67 18.8571C25.2673 18.7047 25.5611 19.0748 26.0509 19.336C26.4537 19.5537 26.4754 19.5864 26.2033 19.532C26.0292 19.4884 25.6918 19.3251 25.4741 19.1836C25.2564 19.0203 24.8754 18.8897 24.6033 18.8571C24.1462 18.8135 24.1462 18.8244 24.4836 18.9333C24.6686 18.9986 25.0496 19.2489 25.3217 19.4775C25.6047 19.6952 26.0074 19.9456 26.236 20.0218C26.4537 20.098 26.8455 20.2613 27.1067 20.4028C27.3679 20.5443 27.7924 20.6858 28.0645 20.7294L28.5543 20.7947L28.3475 21.0342C28.2387 21.1539 28.0972 21.339 28.0537 21.426C28.0101 21.5131 28.119 21.4152 28.304 21.1974C28.6088 20.8491 29.2509 20.4572 29.3489 20.5661C29.3598 20.5879 29.4904 20.9144 29.621 21.2845C29.8496 21.905 29.8605 21.9703 29.6863 22.2207C29.5884 22.3731 29.1639 22.765 28.7285 23.0915C27.8904 23.7338 27.1829 24.4196 27.455 24.3216C27.5639 24.278 27.7271 24.4522 27.9666 24.8659L28.3149 25.4646L28.0645 25.8238L27.8142 26.1939L27.3571 25.6496C27.0958 25.3557 26.7258 24.8659 26.519 24.572L26.1489 24.0277L26.3666 23.6031C26.4863 23.3637 26.8128 22.8956 27.085 22.5472L27.5965 21.9159L27.1285 22.3513C26.6496 22.8085 26.0401 23.7555 26.0401 24.0494C26.0401 24.2454 26.606 25.0291 27.2591 25.7585C27.4986 26.0197 27.738 26.3681 27.8033 26.5531C27.8686 26.7382 27.9884 26.8688 28.0972 26.8688C28.206 26.8688 28.3911 26.9777 28.5217 27.1192L28.7612 27.3804L28.4455 28.0771C27.7924 29.5357 27.5421 31.2448 27.5312 34.2709C27.5312 35.4357 27.5639 36.644 27.6074 36.9488L27.6836 37.5039L26.5081 38.0156C24.9843 38.6905 22.8945 39.4089 20.9244 39.9314C19.1067 40.4104 19.1502 40.4866 21.0115 40.0947C24.8863 39.2674 28.4673 37.8414 31.1339 36.0779C32.6033 35.1091 34.1816 33.7593 34.9761 32.8014C35.3462 32.3551 35.6727 31.985 35.6945 31.985C35.7816 31.985 35.6945 33.9117 35.553 35.0765C35.2156 37.8523 34.5952 40.3668 33.8768 41.9561L33.5612 42.6528H33.8115C34.2142 42.6528 35.1612 42.1194 35.4877 41.6949C36.3476 40.6063 36.8809 38.7558 37.1313 36.0344C37.1857 35.4139 37.2619 34.8805 37.2836 34.8588C37.3489 34.7826 37.6646 36.1215 37.7952 36.9923C37.9367 38.0482 37.8387 40.3777 37.5884 41.5098C37.3381 42.6854 36.8156 44.1659 36.304 45.2109C36.1081 45.6245 36.0102 45.8749 36.1081 45.7552C36.402 45.3959 37.2183 43.6325 37.5231 42.7072C38.187 40.7261 38.4374 38.0809 38.1326 36.2195C37.9585 35.1309 37.5122 33.694 37.1095 32.8885L36.7394 32.17L36.6741 33.9335C36.5435 36.8835 36.1408 39.1041 35.4877 40.443C35.0306 41.3792 34.7911 41.5534 35.0741 40.7587C35.4115 39.779 35.8142 38.0264 36.0646 36.5025C36.2496 35.3813 36.304 34.4669 36.3367 32.083L36.3802 29.0786L36.7721 28.1751C36.9789 27.6743 37.1313 27.2171 37.1095 27.1627C37.0659 27.0321 35.5095 30.7005 35.5095 30.9291C35.5095 31.0053 35.3136 31.3427 35.0741 31.6584C34.8346 31.9741 34.6387 32.2027 34.6387 32.1592C34.6387 32.1265 35.0741 31.0488 35.6074 29.7752C36.5653 27.4784 36.8374 26.7599 36.6088 27.0865C36.5435 27.1736 36.2823 27.7614 36.0319 28.3928L35.5748 29.5357L35.4224 28.9915C35.2374 28.3383 34.9979 28.0553 34.1925 27.5655C33.8442 27.3586 33.5394 27.1192 33.5067 27.0212C33.3435 26.5858 33.5176 24.9529 33.7897 24.4304C33.8877 24.2454 33.9421 24.2998 34.236 24.855C34.6714 25.6496 34.8891 25.7585 35.7598 25.5734C36.1299 25.4972 36.5761 25.3666 36.7612 25.2795C36.9353 25.1924 36.9898 25.1489 36.87 25.1924C36.217 25.3884 35.1176 25.5299 34.9217 25.4537C34.519 25.3013 34.0619 24.3107 34.0401 23.5596C34.0292 23.1568 33.9421 22.7432 33.8224 22.5146C33.5721 22.0247 32.1135 20.5225 31.4823 20.0871C31.2101 19.913 30.9707 19.7388 30.9489 19.717C30.9271 19.7061 30.9816 19.5973 31.0795 19.4884C31.1775 19.3796 31.2972 19.1292 31.3299 18.9441C31.4169 18.5196 31.319 18.4761 31.221 18.8897ZM27.4115 19.9238C27.8795 20.2395 28.0319 20.2831 28.685 20.2831C29.3707 20.2831 29.4033 20.2939 29.1203 20.4137C28.7503 20.577 28.206 20.5008 27.6727 20.2177C26.7693 19.7279 26.5407 19.5755 26.704 19.5755C26.802 19.5755 27.1176 19.7388 27.4115 19.9238ZM30.7421 21.7199C30.8836 21.9812 31.0251 22.188 31.0578 22.188C31.0904 22.188 31.0795 21.9594 31.036 21.6655C30.9054 20.9035 30.938 20.7729 31.1122 21.2628C31.3299 21.8397 31.9176 24.1256 31.9176 24.3542C31.9067 24.6155 31.3408 23.8862 30.8945 23.0589C30.5788 22.4602 30.0564 21.0342 30.0673 20.7838C30.0782 20.6749 30.4809 21.241 30.7421 21.7199ZM30.1544 22.7323C30.1217 22.95 29.6646 23.3419 29.5557 23.233C29.5339 23.2221 29.5992 22.9391 29.6972 22.6234C29.8605 22.0683 29.8822 22.0465 30.0237 22.2425C30.1108 22.3622 30.1761 22.5799 30.1544 22.7323ZM33.1584 23.0806C33.1693 23.5487 32.9408 24.2563 32.7884 24.2563C32.7448 24.2563 32.6795 24.0712 32.6469 23.8426C32.6033 23.6249 32.5489 23.2657 32.5163 23.0589C32.451 22.6888 32.451 22.6888 32.6033 22.9391L32.7557 23.2004L32.8319 22.7867C32.9408 22.2425 33.1476 22.4384 33.1584 23.0806ZM29.338 23.1786C29.1965 23.6685 29.1965 23.81 29.3489 24.4958C29.5775 25.4863 29.5775 26.0959 29.3598 26.1721C29.1421 26.2592 28.87 26.0306 28.87 25.7694C28.87 25.6605 28.7829 25.5517 28.685 25.519C28.5761 25.4863 28.304 25.1598 28.0754 24.7897L27.6727 24.1256L27.9557 23.8971C28.119 23.7773 28.5217 23.4399 28.8591 23.1568C29.1965 22.8629 29.4795 22.6343 29.4795 22.6234C29.4904 22.6234 29.4251 22.8738 29.338 23.1786ZM30.6768 23.6576C30.8727 24.1474 30.8727 24.1474 30.5462 24.1474C30.3176 24.1474 30.2741 24.1039 30.3176 23.9297C30.372 23.7011 30.2414 23.6249 30.1217 23.8209C30.089 23.8753 29.9693 23.9297 29.8714 23.9297C29.7516 23.9297 29.8169 23.8317 30.0673 23.6031C30.2741 23.429 30.4591 23.2875 30.4809 23.2766C30.5027 23.2766 30.5897 23.4507 30.6768 23.6576ZM30.568 24.474H31.0033L31.3952 25.4428L31.787 26.4225L31.1122 26.4878C30.2523 26.564 29.9476 26.5313 29.7299 26.3136C29.5992 26.183 29.5884 26.0742 29.6537 25.8782C29.7081 25.7367 29.719 25.3231 29.6754 24.9747C29.6101 24.3434 29.6101 24.3325 29.8605 24.3978C30.002 24.4413 30.3176 24.474 30.568 24.474ZM28.3693 26.2266C28.0101 26.6293 27.8469 26.3681 28.1734 25.9C28.3367 25.6714 28.3693 25.6605 28.4564 25.8347C28.5326 25.9653 28.5108 26.0742 28.3693 26.2266ZM29.0659 26.2919C29.2292 26.4007 29.3816 26.5096 29.4142 26.5531C29.4469 26.5858 29.621 26.6946 29.8061 26.7926C30.4047 27.0974 30.3503 27.8485 29.7299 27.8485C29.4686 27.8485 29.2836 27.7288 28.8918 27.2933C28.2714 26.6075 28.2605 26.5858 28.4999 26.3136C28.7285 26.0633 28.6958 26.0633 29.0659 26.2919ZM32.8319 26.4551C32.7884 26.5313 32.636 26.7599 32.4945 26.9559C32.3203 27.1845 32.2768 27.3151 32.3639 27.2933C32.451 27.2824 32.636 27.2824 32.7884 27.2933L33.0605 27.3042L32.7993 27.511C32.6578 27.6199 32.5707 27.7614 32.6142 27.8376C32.6578 27.9138 32.6142 27.9573 32.4727 27.9573C32.3421 27.9573 32.1027 27.7396 31.8523 27.4022C31.4169 26.8035 31.4387 26.7164 32.0265 26.5858C32.1789 26.5531 32.3965 26.4878 32.5163 26.4334C32.8319 26.3028 32.919 26.3028 32.8319 26.4551ZM31.6673 29.6011C31.7108 30.5699 31.6673 31.506 31.5367 32.6925C31.4387 33.6396 31.3734 34.5866 31.4061 34.8043C31.4496 35.1309 31.4061 35.2289 31.1775 35.403C30.7312 35.7514 29.0659 36.7746 28.9571 36.7746C28.9135 36.7746 28.87 36.644 28.87 36.4916C28.87 36.263 28.9026 36.2303 29.0986 36.2848C29.3054 36.3501 29.3163 36.3283 29.2401 35.9364C29.1856 35.599 29.1965 35.5445 29.3163 35.6534C29.3924 35.7296 29.5775 35.7949 29.719 35.7949C29.9258 35.7949 29.9693 35.7405 29.9584 35.4901C29.9476 35.3268 29.9367 35.0547 29.9476 34.8914L29.9584 34.5866L30.2523 34.8043C30.6115 35.0982 30.6768 35.0329 30.4482 34.6084C30.2741 34.2601 30.3503 34.1621 30.6006 34.4016C30.6768 34.4778 30.6333 34.2818 30.5027 33.9553C30.372 33.6287 30.2414 33.0409 30.2088 32.649L30.1435 31.9306L30.5462 32.366C30.7748 32.6055 30.938 32.7252 30.9054 32.6381C30.8836 32.551 30.8292 32.366 30.7856 32.2354C30.7203 32.0394 30.7421 31.9959 30.8727 32.0503C31.0904 32.1374 31.0904 32.0612 30.8945 31.6802C30.8183 31.5169 30.7095 31.2665 30.6659 31.125C30.5897 30.8747 30.5897 30.8747 30.8401 31.0488C31.2428 31.321 31.2646 31.2665 31.0469 30.6243L30.8401 30.0256L31.1122 30.1998C31.4278 30.4175 31.4278 30.4392 31.1448 29.699C31.0142 29.3616 30.9816 29.1548 31.0578 29.231C31.2754 29.4487 31.3734 29.3942 31.2754 29.1221C31.2319 28.9915 31.1557 28.7411 31.1122 28.5669C31.036 28.273 31.0469 28.2621 31.221 28.4037C31.3952 28.5452 31.3952 28.5016 31.3408 27.7941L31.2754 27.0321L31.4387 27.6308C31.5258 27.9573 31.6346 28.85 31.6673 29.6011ZM33.6265 29.318C33.7353 29.6664 33.8115 30.4501 33.8442 31.506L33.8986 33.1389L33.2346 33.7158C32.8755 34.0315 32.5707 34.2274 32.5707 34.1512C32.5707 34.0859 32.6904 33.7702 32.8428 33.4545C33.0387 33.0735 33.1584 32.551 33.2455 31.8326C33.387 30.5808 33.2891 30.0147 32.7557 28.9153C32.4074 28.2077 32.4074 28.1859 32.6251 28.1424C32.9299 28.088 33.4088 28.6431 33.6265 29.318ZM35.3027 30.1453C35.1829 30.4284 35.1176 30.5046 35.0959 30.3739C35.0741 30.276 34.9979 29.9385 34.9108 29.6228L34.7693 29.0677L35.1285 29.4051L35.4768 29.7317L35.3027 30.1453ZM33.0061 31.1686C33.0061 32.3986 32.8646 33.2586 32.6142 33.5743C32.4727 33.7593 32.4618 33.6396 32.4945 32.4204C32.5489 31.0053 32.734 29.8732 32.9081 29.9821C32.9625 30.0147 33.0061 30.5481 33.0061 31.1686ZM34.9979 30.842C34.9217 31.0706 34.8564 31.0488 34.8564 30.7767C34.8564 30.657 34.9 30.5808 34.9653 30.6243C35.0197 30.657 35.0414 30.7549 34.9979 30.842Z"/>
</mask>
<path d="M31.221 18.8897C31.1448 19.2381 30.8618 19.6408 30.7639 19.5537C30.7312 19.5102 30.8074 19.336 30.9489 19.151C31.2428 18.7482 31.1448 18.574 30.7965 18.8897C30.6659 19.0095 30.2959 19.2163 29.9693 19.3469C29.3271 19.619 28.6741 19.5973 28.0863 19.2925C27.6727 19.0748 27.6074 19.1074 27.8469 19.3687C28.119 19.6735 28.5652 19.8912 29.1203 20.0109C29.5775 20.1089 29.5775 20.1089 29.0115 20.0654C28.4455 20.0218 28.1299 19.8912 27.4877 19.4231C27.2918 19.2816 26.8455 19.1183 26.5081 19.053C26.1598 18.9877 25.7897 18.9006 25.67 18.8571C25.2673 18.7047 25.5611 19.0748 26.0509 19.336C26.4537 19.5537 26.4754 19.5864 26.2033 19.532C26.0292 19.4884 25.6918 19.3251 25.4741 19.1836C25.2564 19.0203 24.8754 18.8897 24.6033 18.8571C24.1462 18.8135 24.1462 18.8244 24.4836 18.9333C24.6686 18.9986 25.0496 19.2489 25.3217 19.4775C25.6047 19.6952 26.0074 19.9456 26.236 20.0218C26.4537 20.098 26.8455 20.2613 27.1067 20.4028C27.3679 20.5443 27.7924 20.6858 28.0645 20.7294L28.5543 20.7947L28.3475 21.0342C28.2387 21.1539 28.0972 21.339 28.0537 21.426C28.0101 21.5131 28.119 21.4152 28.304 21.1974C28.6088 20.8491 29.2509 20.4572 29.3489 20.5661C29.3598 20.5879 29.4904 20.9144 29.621 21.2845C29.8496 21.905 29.8605 21.9703 29.6863 22.2207C29.5884 22.3731 29.1639 22.765 28.7285 23.0915C27.8904 23.7338 27.1829 24.4196 27.455 24.3216C27.5639 24.278 27.7271 24.4522 27.9666 24.8659L28.3149 25.4646L28.0645 25.8238L27.8142 26.1939L27.3571 25.6496C27.0958 25.3557 26.7258 24.8659 26.519 24.572L26.1489 24.0277L26.3666 23.6031C26.4863 23.3637 26.8128 22.8956 27.085 22.5472L27.5965 21.9159L27.1285 22.3513C26.6496 22.8085 26.0401 23.7555 26.0401 24.0494C26.0401 24.2454 26.606 25.0291 27.2591 25.7585C27.4986 26.0197 27.738 26.3681 27.8033 26.5531C27.8686 26.7382 27.9884 26.8688 28.0972 26.8688C28.206 26.8688 28.3911 26.9777 28.5217 27.1192L28.7612 27.3804L28.4455 28.0771C27.7924 29.5357 27.5421 31.2448 27.5312 34.2709C27.5312 35.4357 27.5639 36.644 27.6074 36.9488L27.6836 37.5039L26.5081 38.0156C24.9843 38.6905 22.8945 39.4089 20.9244 39.9314C19.1067 40.4104 19.1502 40.4866 21.0115 40.0947C24.8863 39.2674 28.4673 37.8414 31.1339 36.0779C32.6033 35.1091 34.1816 33.7593 34.9761 32.8014C35.3462 32.3551 35.6727 31.985 35.6945 31.985C35.7816 31.985 35.6945 33.9117 35.553 35.0765C35.2156 37.8523 34.5952 40.3668 33.8768 41.9561L33.5612 42.6528H33.8115C34.2142 42.6528 35.1612 42.1194 35.4877 41.6949C36.3476 40.6063 36.8809 38.7558 37.1313 36.0344C37.1857 35.4139 37.2619 34.8805 37.2836 34.8588C37.3489 34.7826 37.6646 36.1215 37.7952 36.9923C37.9367 38.0482 37.8387 40.3777 37.5884 41.5098C37.3381 42.6854 36.8156 44.1659 36.304 45.2109C36.1081 45.6245 36.0102 45.8749 36.1081 45.7552C36.402 45.3959 37.2183 43.6325 37.5231 42.7072C38.187 40.7261 38.4374 38.0809 38.1326 36.2195C37.9585 35.1309 37.5122 33.694 37.1095 32.8885L36.7394 32.17L36.6741 33.9335C36.5435 36.8835 36.1408 39.1041 35.4877 40.443C35.0306 41.3792 34.7911 41.5534 35.0741 40.7587C35.4115 39.779 35.8142 38.0264 36.0646 36.5025C36.2496 35.3813 36.304 34.4669 36.3367 32.083L36.3802 29.0786L36.7721 28.1751C36.9789 27.6743 37.1313 27.2171 37.1095 27.1627C37.0659 27.0321 35.5095 30.7005 35.5095 30.9291C35.5095 31.0053 35.3136 31.3427 35.0741 31.6584C34.8346 31.9741 34.6387 32.2027 34.6387 32.1592C34.6387 32.1265 35.0741 31.0488 35.6074 29.7752C36.5653 27.4784 36.8374 26.7599 36.6088 27.0865C36.5435 27.1736 36.2823 27.7614 36.0319 28.3928L35.5748 29.5357L35.4224 28.9915C35.2374 28.3383 34.9979 28.0553 34.1925 27.5655C33.8442 27.3586 33.5394 27.1192 33.5067 27.0212C33.3435 26.5858 33.5176 24.9529 33.7897 24.4304C33.8877 24.2454 33.9421 24.2998 34.236 24.855C34.6714 25.6496 34.8891 25.7585 35.7598 25.5734C36.1299 25.4972 36.5761 25.3666 36.7612 25.2795C36.9353 25.1924 36.9898 25.1489 36.87 25.1924C36.217 25.3884 35.1176 25.5299 34.9217 25.4537C34.519 25.3013 34.0619 24.3107 34.0401 23.5596C34.0292 23.1568 33.9421 22.7432 33.8224 22.5146C33.5721 22.0247 32.1135 20.5225 31.4823 20.0871C31.2101 19.913 30.9707 19.7388 30.9489 19.717C30.9271 19.7061 30.9816 19.5973 31.0795 19.4884C31.1775 19.3796 31.2972 19.1292 31.3299 18.9441C31.4169 18.5196 31.319 18.4761 31.221 18.8897ZM27.4115 19.9238C27.8795 20.2395 28.0319 20.2831 28.685 20.2831C29.3707 20.2831 29.4033 20.2939 29.1203 20.4137C28.7503 20.577 28.206 20.5008 27.6727 20.2177C26.7693 19.7279 26.5407 19.5755 26.704 19.5755C26.802 19.5755 27.1176 19.7388 27.4115 19.9238ZM30.7421 21.7199C30.8836 21.9812 31.0251 22.188 31.0578 22.188C31.0904 22.188 31.0795 21.9594 31.036 21.6655C30.9054 20.9035 30.938 20.7729 31.1122 21.2628C31.3299 21.8397 31.9176 24.1256 31.9176 24.3542C31.9067 24.6155 31.3408 23.8862 30.8945 23.0589C30.5788 22.4602 30.0564 21.0342 30.0673 20.7838C30.0782 20.6749 30.4809 21.241 30.7421 21.7199ZM30.1544 22.7323C30.1217 22.95 29.6646 23.3419 29.5557 23.233C29.5339 23.2221 29.5992 22.9391 29.6972 22.6234C29.8605 22.0683 29.8822 22.0465 30.0237 22.2425C30.1108 22.3622 30.1761 22.5799 30.1544 22.7323ZM33.1584 23.0806C33.1693 23.5487 32.9408 24.2563 32.7884 24.2563C32.7448 24.2563 32.6795 24.0712 32.6469 23.8426C32.6033 23.6249 32.5489 23.2657 32.5163 23.0589C32.451 22.6888 32.451 22.6888 32.6033 22.9391L32.7557 23.2004L32.8319 22.7867C32.9408 22.2425 33.1476 22.4384 33.1584 23.0806ZM29.338 23.1786C29.1965 23.6685 29.1965 23.81 29.3489 24.4958C29.5775 25.4863 29.5775 26.0959 29.3598 26.1721C29.1421 26.2592 28.87 26.0306 28.87 25.7694C28.87 25.6605 28.7829 25.5517 28.685 25.519C28.5761 25.4863 28.304 25.1598 28.0754 24.7897L27.6727 24.1256L27.9557 23.8971C28.119 23.7773 28.5217 23.4399 28.8591 23.1568C29.1965 22.8629 29.4795 22.6343 29.4795 22.6234C29.4904 22.6234 29.4251 22.8738 29.338 23.1786ZM30.6768 23.6576C30.8727 24.1474 30.8727 24.1474 30.5462 24.1474C30.3176 24.1474 30.2741 24.1039 30.3176 23.9297C30.372 23.7011 30.2414 23.6249 30.1217 23.8209C30.089 23.8753 29.9693 23.9297 29.8714 23.9297C29.7516 23.9297 29.8169 23.8317 30.0673 23.6031C30.2741 23.429 30.4591 23.2875 30.4809 23.2766C30.5027 23.2766 30.5897 23.4507 30.6768 23.6576ZM30.568 24.474H31.0033L31.3952 25.4428L31.787 26.4225L31.1122 26.4878C30.2523 26.564 29.9476 26.5313 29.7299 26.3136C29.5992 26.183 29.5884 26.0742 29.6537 25.8782C29.7081 25.7367 29.719 25.3231 29.6754 24.9747C29.6101 24.3434 29.6101 24.3325 29.8605 24.3978C30.002 24.4413 30.3176 24.474 30.568 24.474ZM28.3693 26.2266C28.0101 26.6293 27.8469 26.3681 28.1734 25.9C28.3367 25.6714 28.3693 25.6605 28.4564 25.8347C28.5326 25.9653 28.5108 26.0742 28.3693 26.2266ZM29.0659 26.2919C29.2292 26.4007 29.3816 26.5096 29.4142 26.5531C29.4469 26.5858 29.621 26.6946 29.8061 26.7926C30.4047 27.0974 30.3503 27.8485 29.7299 27.8485C29.4686 27.8485 29.2836 27.7288 28.8918 27.2933C28.2714 26.6075 28.2605 26.5858 28.4999 26.3136C28.7285 26.0633 28.6958 26.0633 29.0659 26.2919ZM32.8319 26.4551C32.7884 26.5313 32.636 26.7599 32.4945 26.9559C32.3203 27.1845 32.2768 27.3151 32.3639 27.2933C32.451 27.2824 32.636 27.2824 32.7884 27.2933L33.0605 27.3042L32.7993 27.511C32.6578 27.6199 32.5707 27.7614 32.6142 27.8376C32.6578 27.9138 32.6142 27.9573 32.4727 27.9573C32.3421 27.9573 32.1027 27.7396 31.8523 27.4022C31.4169 26.8035 31.4387 26.7164 32.0265 26.5858C32.1789 26.5531 32.3965 26.4878 32.5163 26.4334C32.8319 26.3028 32.919 26.3028 32.8319 26.4551ZM31.6673 29.6011C31.7108 30.5699 31.6673 31.506 31.5367 32.6925C31.4387 33.6396 31.3734 34.5866 31.4061 34.8043C31.4496 35.1309 31.4061 35.2289 31.1775 35.403C30.7312 35.7514 29.0659 36.7746 28.9571 36.7746C28.9135 36.7746 28.87 36.644 28.87 36.4916C28.87 36.263 28.9026 36.2303 29.0986 36.2848C29.3054 36.3501 29.3163 36.3283 29.2401 35.9364C29.1856 35.599 29.1965 35.5445 29.3163 35.6534C29.3924 35.7296 29.5775 35.7949 29.719 35.7949C29.9258 35.7949 29.9693 35.7405 29.9584 35.4901C29.9476 35.3268 29.9367 35.0547 29.9476 34.8914L29.9584 34.5866L30.2523 34.8043C30.6115 35.0982 30.6768 35.0329 30.4482 34.6084C30.2741 34.2601 30.3503 34.1621 30.6006 34.4016C30.6768 34.4778 30.6333 34.2818 30.5027 33.9553C30.372 33.6287 30.2414 33.0409 30.2088 32.649L30.1435 31.9306L30.5462 32.366C30.7748 32.6055 30.938 32.7252 30.9054 32.6381C30.8836 32.551 30.8292 32.366 30.7856 32.2354C30.7203 32.0394 30.7421 31.9959 30.8727 32.0503C31.0904 32.1374 31.0904 32.0612 30.8945 31.6802C30.8183 31.5169 30.7095 31.2665 30.6659 31.125C30.5897 30.8747 30.5897 30.8747 30.8401 31.0488C31.2428 31.321 31.2646 31.2665 31.0469 30.6243L30.8401 30.0256L31.1122 30.1998C31.4278 30.4175 31.4278 30.4392 31.1448 29.699C31.0142 29.3616 30.9816 29.1548 31.0578 29.231C31.2754 29.4487 31.3734 29.3942 31.2754 29.1221C31.2319 28.9915 31.1557 28.7411 31.1122 28.5669C31.036 28.273 31.0469 28.2621 31.221 28.4037C31.3952 28.5452 31.3952 28.5016 31.3408 27.7941L31.2754 27.0321L31.4387 27.6308C31.5258 27.9573 31.6346 28.85 31.6673 29.6011ZM33.6265 29.318C33.7353 29.6664 33.8115 30.4501 33.8442 31.506L33.8986 33.1389L33.2346 33.7158C32.8755 34.0315 32.5707 34.2274 32.5707 34.1512C32.5707 34.0859 32.6904 33.7702 32.8428 33.4545C33.0387 33.0735 33.1584 32.551 33.2455 31.8326C33.387 30.5808 33.2891 30.0147 32.7557 28.9153C32.4074 28.2077 32.4074 28.1859 32.6251 28.1424C32.9299 28.088 33.4088 28.6431 33.6265 29.318ZM35.3027 30.1453C35.1829 30.4284 35.1176 30.5046 35.0959 30.3739C35.0741 30.276 34.9979 29.9385 34.9108 29.6228L34.7693 29.0677L35.1285 29.4051L35.4768 29.7317L35.3027 30.1453ZM33.0061 31.1686C33.0061 32.3986 32.8646 33.2586 32.6142 33.5743C32.4727 33.7593 32.4618 33.6396 32.4945 32.4204C32.5489 31.0053 32.734 29.8732 32.9081 29.9821C32.9625 30.0147 33.0061 30.5481 33.0061 31.1686ZM34.9979 30.842C34.9217 31.0706 34.8564 31.0488 34.8564 30.7767C34.8564 30.657 34.9 30.5808 34.9653 30.6243C35.0197 30.657 35.0414 30.7549 34.9979 30.842Z" fill="white" stroke="black" stroke-width="50" mask="url(#path-33-inside-1_166_9)"/>
<path d="M23.5915 18.9325C23.646 19.0849 24.7997 19.6836 25.05 19.6836C25.2677 19.6836 25.1698 19.5203 24.8106 19.2699C24.6147 19.1393 24.299 19.0305 24.1249 19.0305C23.9398 19.0305 23.733 18.9652 23.6568 18.889C23.548 18.7801 23.5371 18.791 23.5915 18.9325Z" fill="black"/>
<mask id="path-35-inside-2_166_9" fill="white">
<path d="M32.5927 19.9222C32.5709 20.4992 32.5927 20.5536 32.7995 20.5536C33.0607 20.5536 33.3981 20.7169 33.7682 21.0326C33.9206 21.1523 33.8879 21.0979 33.692 20.9019C33.4961 20.706 33.1804 20.5209 33.0063 20.4883C32.7124 20.423 32.6906 20.3794 32.6471 19.8569L32.6144 19.3018L32.5927 19.9222Z"/>
</mask>
<path d="M32.5927 19.9222C32.5709 20.4992 32.5927 20.5536 32.7995 20.5536C33.0607 20.5536 33.3981 20.7169 33.7682 21.0326C33.9206 21.1523 33.8879 21.0979 33.692 20.9019C33.4961 20.706 33.1804 20.5209 33.0063 20.4883C32.7124 20.423 32.6906 20.3794 32.6471 19.8569L32.6144 19.3018L32.5927 19.9222Z" fill="black"/>
<path d="M32.5927 19.9222L33.592 19.9573L33.5919 19.9599L32.5927 19.9222ZM33.7682 21.0326L33.1503 21.8189L33.1345 21.8064L33.1192 21.7934L33.7682 21.0326ZM33.0063 20.4883L32.822 21.4712L32.8056 21.4681L32.7893 21.4645L33.0063 20.4883ZM32.6471 19.8569L31.6505 19.94L31.6495 19.9278L31.6488 19.9156L32.6471 19.8569ZM32.6144 19.3018L31.615 19.2667L33.6127 19.2431L32.6144 19.3018ZM33.5919 19.9599C33.5865 20.1041 33.5851 20.1874 33.5864 20.2387C33.5881 20.3076 33.5942 20.2436 33.559 20.1381C33.5375 20.0736 33.4944 19.9734 33.409 19.8698C33.3186 19.7602 33.208 19.6795 33.0937 19.6271C32.9887 19.5789 32.9005 19.5638 32.8578 19.5583C32.8162 19.553 32.7903 19.5536 32.7995 19.5536V21.5536C32.7464 21.5536 32.508 21.5588 32.26 21.4451C31.925 21.2914 31.7434 21.0157 31.6617 20.7705C31.5979 20.5793 31.5897 20.3935 31.587 20.2899C31.5839 20.1687 31.5879 20.0288 31.5934 19.8845L33.5919 19.9599ZM32.7995 19.5536C33.4251 19.5536 33.994 19.9108 34.4172 20.2718L33.1192 21.7934C32.9803 21.6749 32.8726 21.6069 32.8017 21.5721C32.7253 21.5345 32.7294 21.5536 32.7995 21.5536V19.5536ZM34.386 20.2463C34.4278 20.2791 34.3998 20.2535 34.3412 20.2202C34.3245 20.2108 34.272 20.1813 34.198 20.1546C34.1612 20.1412 34.0907 20.118 33.9984 20.1052C33.9187 20.0941 33.7298 20.0768 33.5094 20.16C33.2398 20.2618 33.0176 20.48 32.9181 20.7693C32.8366 21.0063 32.8665 21.2065 32.8837 21.2913C32.9179 21.4595 32.9887 21.5755 32.9987 21.5926C33.0547 21.6878 33.1126 21.7432 33.071 21.6977C33.0563 21.6818 33.0287 21.6529 32.9848 21.609L34.3991 20.1949C34.4532 20.2489 34.5031 20.3003 34.545 20.346C34.5598 20.3621 34.6531 20.4603 34.7226 20.5787C34.7361 20.6015 34.809 20.7221 34.8438 20.8936C34.8613 20.98 34.8912 21.1816 34.8094 21.4197C34.7096 21.7099 34.4866 21.9289 34.2159 22.0311C33.9945 22.1147 33.8043 22.0974 33.7228 22.0861C33.6288 22.073 33.5562 22.0492 33.517 22.035C33.4382 22.0065 33.3794 21.974 33.3551 21.9602C33.2658 21.9096 33.1847 21.8459 33.1503 21.8189L34.386 20.2463ZM32.9848 21.609C32.9736 21.5978 32.9528 21.5791 32.9223 21.5559C32.8924 21.5333 32.8597 21.5112 32.8278 21.4922C32.7952 21.4727 32.7709 21.4607 32.7585 21.4553C32.7527 21.4527 32.7537 21.4535 32.7612 21.456C32.7677 21.4582 32.7888 21.4649 32.822 21.4712L33.1906 19.5054C33.4513 19.5543 33.6943 19.68 33.8541 19.7756C34.0339 19.8831 34.2311 20.0269 34.3991 20.1949L32.9848 21.609ZM32.7893 21.4645C32.6822 21.4407 32.1535 21.3521 31.862 20.8356C31.7505 20.6382 31.7119 20.4422 31.6932 20.3271C31.6732 20.2044 31.661 20.0661 31.6505 19.94L33.6436 19.7739C33.6549 19.909 33.6617 19.9721 33.6673 20.0066C33.6741 20.0486 33.6674 19.9655 33.6036 19.8525C33.5669 19.7875 33.5158 19.7197 33.4482 19.6582C33.3821 19.598 33.3177 19.5596 33.2698 19.5363C33.2252 19.5146 33.1936 19.5054 33.1901 19.5044C33.1868 19.5034 33.1937 19.5056 33.2232 19.5121L32.7893 21.4645ZM31.6488 19.9156L31.6162 19.3605L33.6127 19.2431L33.6454 19.7982L31.6488 19.9156ZM33.6138 19.3368L33.592 19.9573L31.5933 19.8872L31.615 19.2667L33.6138 19.3368Z" fill="black" mask="url(#path-35-inside-2_166_9)"/>
<path d="M27.7713 21.8277C27.6298 22.0019 27.6407 22.0128 27.8148 21.8713C27.989 21.7297 28.0434 21.6427 27.9563 21.6427C27.9346 21.6427 27.8475 21.7297 27.7713 21.8277Z" fill="black"/>
<mask id="path-38-inside-3_166_9" fill="white">
<path d="M34.5301 22.5675C34.6716 22.8069 34.8676 23.275 34.9655 23.6016C35.1941 24.2983 35.2812 24.3418 36.5438 24.3418L37.4145 24.3309L36.3043 24.2221C35.488 24.1459 35.1832 24.0805 35.1832 23.9717C35.1832 23.7104 34.7478 22.6763 34.5193 22.4042C34.3016 22.1538 34.3125 22.1647 34.5301 22.5675Z"/>
</mask>
<path d="M34.5301 22.5675C34.6716 22.8069 34.8676 23.275 34.9655 23.6016C35.1941 24.2983 35.2812 24.3418 36.5438 24.3418L37.4145 24.3309L36.3043 24.2221C35.488 24.1459 35.1832 24.0805 35.1832 23.9717C35.1832 23.7104 34.7478 22.6763 34.5193 22.4042C34.3016 22.1538 34.3125 22.1647 34.5301 22.5675Z" fill="black"/>
<path d="M34.5301 22.5675L33.6692 23.0761L33.6595 23.0597L33.6504 23.0429L34.5301 22.5675ZM34.9655 23.6016L34.0153 23.9133L34.0114 23.9012L34.0077 23.8889L34.9655 23.6016ZM36.5438 24.3418L36.5563 25.3418H36.5438V24.3418ZM37.4145 24.3309L37.5121 23.3357L37.427 25.3308L37.4145 24.3309ZM36.3043 24.2221L36.3972 23.2264L36.4019 23.2268L36.3043 24.2221ZM34.5193 22.4042L35.2739 21.748L35.2795 21.7545L35.285 21.761L34.5193 22.4042ZM35.3911 22.0588C35.5832 22.3838 35.8082 22.9303 35.9233 23.3143L34.0077 23.8889C33.9269 23.6197 33.7601 23.23 33.6692 23.0761L35.3911 22.0588ZM35.9157 23.2898C35.9428 23.3725 35.9619 23.427 35.9776 23.467C35.9933 23.5069 35.9986 23.5138 35.9929 23.5041C35.9854 23.4914 35.9631 23.4568 35.9215 23.4173C35.8782 23.3761 35.832 23.3466 35.7927 23.3281C35.7319 23.2995 35.724 23.3152 35.8755 23.3272C36.0195 23.3386 36.2233 23.3418 36.5438 23.3418V25.3418C36.2329 25.3418 35.9524 25.3395 35.7178 25.321C35.4907 25.303 35.2101 25.2644 34.941 25.1377C34.2891 24.8309 34.1096 24.2006 34.0153 23.9133L35.9157 23.2898ZM36.5313 23.3419L37.402 23.331L37.427 25.3308L36.5563 25.3417L36.5313 23.3419ZM37.3169 25.3261L36.2067 25.2173L36.4019 23.2268L37.5121 23.3357L37.3169 25.3261ZM36.2114 25.2177C35.8052 25.1798 35.4678 25.14 35.2215 25.0855C35.1081 25.0604 34.9321 25.0156 34.7634 24.9232C34.6171 24.8431 34.1832 24.5574 34.1832 23.9717H36.1832C36.1832 23.7291 36.0913 23.526 35.9774 23.3841C35.8765 23.2587 35.7704 23.1944 35.7237 23.1688C35.6377 23.1217 35.5889 23.1184 35.6538 23.1328C35.7639 23.1571 35.9871 23.1881 36.3972 23.2264L36.2114 25.2177ZM34.1832 23.9717C34.1832 24.0528 34.1965 24.0952 34.1894 24.0642C34.1854 24.047 34.1764 24.013 34.1597 23.9611C34.1265 23.8581 34.0762 23.7242 34.0158 23.5812C33.9557 23.4389 33.8914 23.3015 33.8336 23.1911C33.766 23.0621 33.737 23.0277 33.7535 23.0473L35.285 21.761C35.4158 21.9167 35.527 22.1137 35.6053 22.2632C35.6934 22.4314 35.7808 22.6199 35.8581 22.8028C35.9351 22.985 36.0079 23.1756 36.0635 23.3485C36.1044 23.4756 36.1832 23.7291 36.1832 23.9717H34.1832ZM33.7646 23.0603C33.7365 23.028 33.7151 23.0033 33.6972 22.983C33.6886 22.9732 33.6819 22.9656 33.6768 22.9599C33.6714 22.954 33.6693 22.9517 33.6695 22.9519C33.6697 22.9521 33.6712 22.9537 33.6737 22.9563C33.6761 22.9587 33.6806 22.9633 33.6868 22.9693C33.6927 22.975 33.7273 23.0088 33.7794 23.0469C33.8042 23.065 33.862 23.1058 33.944 23.1439C33.9983 23.1692 34.2167 23.269 34.5093 23.2258C34.6786 23.2007 34.8629 23.1283 35.0228 22.9876C35.1776 22.8513 35.2612 22.6938 35.3049 22.5697C35.3818 22.3509 35.36 22.1669 35.3537 22.1169C35.3381 21.992 35.301 21.9009 35.2986 21.8947C35.2887 21.8687 35.2805 21.8515 35.2794 21.849C35.2767 21.8432 35.2787 21.8478 35.2913 21.8718C35.3159 21.9186 35.3523 21.9855 35.4099 22.092L33.6504 23.0429C33.5991 22.9481 33.5526 22.8626 33.5207 22.8018C33.505 22.7721 33.4855 22.7342 33.4679 22.6966C33.4593 22.6782 33.4454 22.6477 33.4314 22.6112C33.4249 22.5943 33.3854 22.4952 33.3692 22.3649C33.3626 22.3122 33.3408 22.1261 33.4183 21.9058C33.4622 21.781 33.5462 21.6229 33.7014 21.4862C33.8618 21.3451 34.0466 21.2724 34.2167 21.2473C34.5106 21.2038 34.7308 21.3041 34.7874 21.3304C34.8715 21.3696 34.932 21.412 34.9598 21.4324C35.0522 21.4999 35.1218 21.5768 35.1275 21.5829C35.1704 21.6286 35.2273 21.6945 35.2739 21.748L33.7646 23.0603Z" fill="black" mask="url(#path-38-inside-3_166_9)"/>
<path d="M38.0674 23.1776C38.0238 23.2973 38.0238 23.428 38.0565 23.4606C38.0891 23.5042 38.1218 23.4497 38.1218 23.3409C38.1218 23.2211 38.1871 23.1667 38.3177 23.1885C38.4265 23.2103 38.4919 23.3082 38.4701 23.4388C38.4483 23.6566 38.4483 23.6566 38.568 23.4497C38.6769 23.2756 38.6551 23.2103 38.4919 23.0905C38.2306 22.8946 38.1436 22.9055 38.0674 23.1776Z" fill="black"/>
<path d="M37.6212 24.169C37.4144 24.4194 37.4144 24.4194 37.643 24.2234C37.9587 23.9622 38.2199 23.9948 38.3396 24.3214C38.492 24.7024 38.4702 24.8113 38.2416 25.1269C38.0566 25.3664 38.0022 25.3773 37.7301 25.2467C37.4689 25.1269 37.4471 25.1378 37.5777 25.2793C38.0566 25.878 38.8294 24.8657 38.4484 24.1364C38.2961 23.8533 37.8716 23.8751 37.6212 24.169Z" fill="black"/>
<path d="M37.0561 25.7677C36.8275 26.312 36.8275 26.312 36.4901 26.2031C35.8588 25.9745 36.033 26.2031 36.7513 26.5297C37.6656 26.9433 37.9051 27.0195 37.9051 26.878C37.9051 26.8236 37.8071 26.7365 37.6874 26.7038C37.4262 26.6168 37.4153 26.5406 37.633 26.0289C37.818 25.5826 37.8289 25.5282 37.6983 25.6044C37.6547 25.6371 37.5459 25.8874 37.4697 26.1596C37.3282 26.6712 37.2956 26.7038 37.0452 26.5514C36.9146 26.4644 36.9255 26.3664 37.1214 25.8765C37.252 25.5609 37.35 25.2887 37.3282 25.267C37.3064 25.2452 37.1867 25.4738 37.0561 25.7677Z" fill="black"/>
<path d="M16.8539 40.4639C16.6145 40.7251 15.624 41.1388 14.3396 41.5197C12.5219 42.0422 11.4335 42.6954 10.8893 43.5771C10.6172 44.0343 10.6389 44.1758 10.9437 43.773C11.5206 42.9893 12.5002 42.4559 14.677 41.7375C15.9505 41.3129 16.7995 40.8557 17.0063 40.4856C17.1478 40.2026 17.0934 40.1917 16.8539 40.4639Z" fill="#213F96"/>
<path d="M18.9443 40.4427C19.0097 40.4644 19.1403 40.4644 19.2165 40.4427C19.2818 40.41 19.2273 40.3882 19.075 40.3882C18.9226 40.3882 18.8682 40.41 18.9443 40.4427Z" fill="white"/>
<path d="M19.6184 40.8565C15.6892 41.8906 15.7218 41.8797 16.266 41.8906C17.1912 41.8906 19.4987 41.2919 20.8484 40.6932C21.5014 40.3993 21.1749 40.4429 19.6184 40.8565Z" fill="#213F96"/>
<path d="M35.9457 46.7347C34.879 46.9306 34.0518 47.181 28.664 48.8791C26.1824 49.652 23.7116 50.3922 23.1674 50.5119C21.7416 50.8167 18.0844 50.9038 16.2885 50.6643C13.9048 50.3487 12.1415 49.8044 10.9334 49.0097L10.2041 48.5308L10.781 49.0751C11.4123 49.6738 12.4572 50.218 13.7742 50.6426C15.9293 51.3392 19.9456 51.84 23.5919 51.84C25.8232 51.8509 26.2151 51.8182 27.2164 51.6005C28.9688 51.2086 30.9062 50.5446 33.279 49.5431C38.2205 47.4313 39.3308 47.1374 40.343 47.649C40.7566 47.8668 40.7566 47.8668 40.5607 47.649C40.2886 47.3551 39.1675 46.8326 38.4709 46.6911C37.7307 46.5387 36.9688 46.5496 35.9457 46.7347ZM39.3416 47.1374C39.7335 47.2789 39.7226 47.2789 38.7974 47.2789C37.6328 47.2789 36.3702 47.6599 33.0069 49.0206C28.3702 50.8929 25.2463 51.5896 21.7198 51.5678L20.2177 51.5569L21.4695 51.4046C23.5048 51.1651 23.2763 51.2304 32.1906 48.3131C33.9865 47.7252 35.8042 47.1701 36.2178 47.0721C37.0995 46.8762 38.7212 46.9088 39.3416 47.1374Z" fill="#213F96"/>
</svg>
