<svg width="60" height="60" viewBox="0 0 60 60" fill="none" xmlns="http://www.w3.org/2000/svg">
<g clip-path="url(#clip0_143_18)">
<path d="M24.375 0V12.1875H29.0093V13.1588H30.8668V12.1875H35.6249V0H24.375ZM33.7499 10.3126H26.2499V1.875H33.7499V10.3126Z" fill="white"/>
<path d="M16.8747 23.4367V18.7498H12.1679V17.8643H10.3104V18.7498H5.625V29.9999H16.875V25.2943H17.8643V23.4367H16.8747ZM7.49976 28.1249V20.6248H14.9997V28.1249H7.49976Z" fill="white"/>
<path d="M35.6247 23.4367V18.7498H30.8665V17.8643H29.009V18.7498H24.3747V23.4367H23.4365V25.2943H24.3747V29.9999H35.6247V25.2943H36.5629V23.4367H35.6247ZM33.7497 28.1249H26.2497V20.6248H33.7497V28.1249Z" fill="white"/>
<path d="M49.6895 18.7498V17.8643H47.832V18.7498H43.1252V23.4367H42.1357V25.2943H43.1252V29.9999H54.3751V18.7498H49.6895ZM52.5001 28.1249H45.0001V20.6248H52.5001V28.1249Z" fill="white"/>
<path d="M10.3105 14.0259V16.874H12.1681V15.8833H29.0093V16.874H30.8667V15.8833H47.8318V16.874H49.6893V14.0259H10.3105Z" fill="white"/>
<path d="M18.7314 23.437V25.2945H19.7221V31.8576H21.5797V25.2945H22.4464V23.437H18.7314Z" fill="white"/>
<path d="M21.5792 33.75V32.8481H19.7216V33.75H14.9998V38.4206H14.0254V40.2782H14.9998V44.9999H19.7216V46.7173H21.5792V44.9999H26.2497V33.7499H21.5792V33.75ZM24.3748 43.125H16.8748V35.625H24.3748V43.125Z" fill="white"/>
<path d="M4.73828 38.4209V46.7176H6.5957V40.2783H13.1589V38.4209H4.73828Z" fill="white"/>
<path d="M6.59565 48.7502V47.832H4.73823V48.7502H0V60.0002H11.25V48.7502H6.59565ZM9.37498 58.1249H1.875V50.625H9.37498V58.1249Z" fill="white"/>
<path d="M21.5794 48.7502V47.832H19.7218V48.7502H15V60.0002H26.25V48.7502H21.5794ZM24.375 58.1249H16.875V50.625H24.375V58.1249Z" fill="white"/>
<path d="M55.2617 48.7502V47.832H53.4042V48.7502H48.75V60.0002H60V48.7502H55.2617ZM58.1251 58.1252H50.6251V50.6252H58.1251V58.1252Z" fill="white"/>
<path d="M45 38.4206V33.75H40.2782V32.8481H38.4206V33.75H33.75V45H38.4206V46.7174H40.2782V45H45V40.2782H45.9744V38.4206H45ZM43.1251 43.1251H35.6251V35.6251H43.1251V43.1251Z" fill="white"/>
<path d="M37.5537 23.437V25.2945H38.4205V31.8576H40.278V25.2945H41.2687V23.437H37.5537Z" fill="white"/>
<path d="M46.8408 38.4209V40.2783H53.404V46.7176H55.2614V38.4209H46.8408Z" fill="white"/>
<path d="M40.2782 48.7502V47.832H38.4206V48.7502H33.75V60.0002H45V48.7502H40.2782ZM43.1251 58.1249H35.6251V50.625H43.1251V58.1249Z" fill="white"/>
</g>
<defs>
<clipPath id="clip0_143_18">
<rect width="60" height="60" fill="white"/>
</clipPath>
</defs>
</svg>
