<svg width="20" height="21" viewBox="0 0 20 21" fill="none" xmlns="http://www.w3.org/2000/svg">
<g clip-path="url(#clip0_1_164)">
<path d="M16.2256 10.8625L0.307617 10.843C0.216471 10.843 0.141602 10.8137 0.0830078 10.7551C0.0244141 10.6965 -0.00488281 10.6217 -0.00488281 10.5305C-0.00488281 10.4524 0.0244141 10.3808 0.0830078 10.3157C0.141602 10.2506 0.216471 10.218 0.307617 10.218L16.2256 10.2375C16.3167 10.2375 16.3916 10.2668 16.4502 10.3254C16.5088 10.384 16.5381 10.4589 16.5381 10.55C16.5381 10.6412 16.5088 10.7161 16.4502 10.7747C16.3916 10.8333 16.3167 10.8625 16.2256 10.8625ZM19.9951 10.55C19.5524 10.7193 19.0902 10.9146 18.6084 11.136C18.1266 11.3443 17.6481 11.5787 17.1729 11.8391C16.6976 12.0995 16.2451 12.3665 15.8154 12.6399C15.3857 12.9264 14.9951 13.2193 14.6436 13.5188L15.7373 10.55L14.6631 7.5813C15.0016 7.88078 15.3857 8.17375 15.8154 8.46021C16.2451 8.74666 16.6976 9.01685 17.1729 9.27075C17.6481 9.52466 18.1266 9.76229 18.6084 9.98364C19.0902 10.205 19.5524 10.3938 19.9951 10.55Z" fill="#FFA415"/>
</g>
<defs>
<clipPath id="clip0_1_164">
<rect width="20" height="20" fill="white" transform="matrix(1 0 0 -1 -0.00488281 20.55)"/>
</clipPath>
</defs>
</svg>
