<svg width="15" height="15" viewBox="0 0 15 15" fill="none" xmlns="http://www.w3.org/2000/svg">
<path d="M10.608 4.0286C10.5853 4.00593 10.5513 3.9946 10.506 3.9946C10.4607 3.9946 10.421 4.0116 10.387 4.0456L6.154 8.5336C6.12 8.5676 6.08033 8.5846 6.035 8.5846C5.98967 8.5846 5.95567 8.5676 5.933 8.5336L4.42 7.0376C4.39733 7.0036 4.36333 6.9866 4.318 6.9866C4.27267 6.9866 4.233 7.0036 4.199 7.0376L3.298 7.9386C3.264 7.9726 3.247 8.01227 3.247 8.0576C3.247 8.10293 3.264 8.1426 3.298 8.1766L5.984 10.8626C6.00667 10.8853 6.04067 10.8966 6.086 10.8966C6.13133 10.8966 6.171 10.8796 6.205 10.8456L11.577 5.1506C11.6337 5.07127 11.628 4.9976 11.56 4.9296C11.424 4.7936 11.2143 4.59527 10.931 4.3346L10.608 4.0286ZM7.429 -0.00039959C6.08033 -0.00039959 4.828 0.339601 3.672 1.0196C2.55 1.67693 1.666 2.5666 1.02 3.6886C0.34 4.8446 0 6.09693 0 7.4456C0 8.79427 0.34 10.0466 1.02 11.2026C1.666 12.3246 2.55 13.2143 3.672 13.8716C4.828 14.5516 6.08033 14.8916 7.429 14.8916C8.77767 14.8916 10.03 14.5516 11.186 13.8716C12.308 13.2143 13.1977 12.3246 13.855 11.2026C14.535 10.0466 14.875 8.79427 14.875 7.4456C14.875 6.09693 14.535 4.8446 13.855 3.6886C13.1977 2.5666 12.308 1.67693 11.186 1.0196C10.03 0.339601 8.77767 -0.00039959 7.429 -0.00039959ZM7.429 13.7186C6.29567 13.7186 5.24167 13.4296 4.267 12.8516C3.32633 12.2963 2.57833 11.5483 2.023 10.6076C1.445 9.63293 1.156 8.57893 1.156 7.4456C1.156 6.31227 1.445 5.25827 2.023 4.2836C2.57833 3.34293 3.32633 2.59493 4.267 2.0396C5.24167 1.4616 6.29567 1.1726 7.429 1.1726C8.56233 1.1726 9.61633 1.45593 10.591 2.0226C11.543 2.57793 12.2967 3.3316 12.852 4.2836C13.4187 5.25827 13.702 6.31227 13.702 7.4456C13.702 8.57893 13.4187 9.63293 12.852 10.6076C12.2967 11.5596 11.543 12.3133 10.591 12.8686C9.61633 13.4353 8.56233 13.7186 7.429 13.7186Z" fill="#FFA415"/>
</svg>
