<svg width="60" height="60" viewBox="0 0 60 60" fill="none" xmlns="http://www.w3.org/2000/svg">
<g clip-path="url(#clip0_142_9)">
<path d="M30.4732 17.9099V17.9087C30.4684 17.9087 30.4645 17.9095 30.4592 17.9095V17.9087C30.4577 17.9087 30.4551 17.9087 30.4536 17.9095C30.4508 17.9087 30.4489 17.9087 30.4465 17.9087V17.9095C30.4413 17.9095 30.438 17.9087 30.4336 17.9087V17.9099C27.3397 17.9923 25.4406 19.7431 25.4721 22.8069C25.5188 27.2215 27.3789 29.8997 30.4382 29.8528V29.854C30.4408 29.854 30.4433 29.854 30.4465 29.854C30.4477 29.854 30.4493 29.854 30.4522 29.854C30.4522 29.854 30.4524 29.854 30.4538 29.854H30.4553C30.4571 29.854 30.4583 29.854 30.4593 29.854C30.4625 29.854 30.4651 29.854 30.4676 29.854V29.8528C33.5268 29.8998 35.3876 27.2215 35.4345 22.8069C35.4659 19.7435 33.5666 17.9924 30.4732 17.9099Z" fill="white"/>
<path d="M15.1814 47.8561C14.7771 47.6623 14.273 47.5527 13.8002 47.5527C12.5693 47.5527 11.8049 48.2858 11.8049 49.4627V50.5304H11.3426C11.1552 50.5304 11.0039 50.6828 11.0039 50.8706V51.5688C11.0039 51.7549 11.1552 51.9071 11.3426 51.9071H11.8049V54.5568C11.8049 54.7447 11.9562 54.8968 12.1435 54.8968H13.4711C13.6583 54.8968 13.8096 54.7445 13.8096 54.5568V51.9174H14.9767C15.1631 51.9174 15.3153 51.7658 15.3153 51.5792V50.8706C15.3153 50.6827 15.1632 50.5306 14.9767 50.5306H13.8096V49.7523C13.8096 49.3753 13.9397 49.2068 14.2326 49.2068L14.2529 49.2072C14.3753 49.2072 14.5181 49.2372 14.6954 49.2979C14.7835 49.3259 14.8807 49.319 14.9628 49.2771C15.0456 49.2328 15.1068 49.1577 15.1317 49.0695L15.3624 48.2549C15.4077 48.0946 15.3313 47.9258 15.1814 47.8561Z" fill="white"/>
<path d="M51.6125 0.388672C46.9876 0.388672 43.2253 4.15026 43.2253 8.77488C43.2253 10.5696 43.7942 12.2327 44.7577 13.5986L41.0085 17.3476C38.2179 14.8118 34.5139 13.2649 30.455 13.2649C26.1591 13.2649 22.2614 14.9985 19.4228 17.8022L15.6024 14.6452C16.346 13.393 16.7748 11.9336 16.7748 10.3746C16.7748 5.75035 13.0124 1.98836 8.38768 1.98836C3.76293 1.98836 0 5.75021 0 10.3744C0 14.9996 3.76239 18.7628 8.38728 18.7628C10.5843 18.7628 12.5858 17.9123 14.0825 16.5248L17.8368 19.6273C15.8958 22.2409 14.746 25.4749 14.746 28.9735C14.746 33.9282 17.0522 38.3532 20.6466 41.2346L17.9464 44.3054C16.5981 43.38 14.9681 42.8368 13.2131 42.8368C8.58823 42.8368 4.82598 46.6007 4.82598 51.2252C4.82598 55.8494 8.58837 59.6114 13.2133 59.6114C17.8381 59.6114 21.6005 55.8498 21.6005 51.2252C21.6005 49.2256 20.8958 47.3875 19.7234 45.9444L22.6578 42.6072C24.9567 43.9275 27.619 44.6823 30.455 44.6823C39.117 44.6823 46.1637 37.636 46.1637 28.9735C46.1637 25.2384 44.8531 21.8047 42.6681 19.1059L46.4197 15.3538C47.8493 16.4851 49.6529 17.1631 51.6127 17.1631C56.2376 17.1631 60 13.3992 60 8.77474C60 4.15012 56.2373 0.388672 51.6125 0.388672ZM13.213 57.409C9.80311 57.409 7.02825 54.6346 7.02825 51.2254C7.02825 47.8143 9.80297 45.0416 13.213 45.0416C16.623 45.0416 19.3969 47.8149 19.3969 51.2254C19.3969 54.6344 16.6229 57.409 13.213 57.409ZM8.38701 16.5585C4.97713 16.5585 2.20228 13.7858 2.20228 10.3744C2.20228 6.96603 4.977 4.19131 8.38701 4.19131C11.797 4.19131 14.5708 6.96603 14.5708 10.3744C14.5709 13.7859 11.797 16.5585 8.38701 16.5585ZM40.6801 36.6303C40.4608 35.0778 40.0603 33.5207 39.2648 33.2042L34.2885 31.2207L33.123 30.2391C32.8152 29.9784 32.3606 29.9973 32.0751 30.2813L30.4551 31.8931L28.8307 30.2808C28.5452 29.9973 28.0913 29.9793 27.7834 30.2388L26.6183 31.2204L21.642 33.2045C20.8472 33.5214 20.4469 35.0773 20.2286 36.6297C18.6259 34.4945 17.6749 31.8429 17.6749 28.9732C17.6749 21.9269 23.4079 16.1936 30.4547 16.1936C37.5016 16.1936 43.2341 21.927 43.2341 28.9732C43.2341 31.8433 42.2831 34.4948 40.6801 36.6303ZM51.6125 14.9587C48.2026 14.9587 45.4287 12.1856 45.4287 8.77488C45.4287 5.36567 48.2026 2.59108 51.6125 2.59108C55.0223 2.59108 57.797 5.36567 57.797 8.77488C57.797 12.1856 55.0223 14.9587 51.6125 14.9587Z" fill="white"/>
<path d="M53.5313 10.9305C53.506 10.8423 53.445 10.7671 53.3628 10.7229C53.2803 10.6809 53.1843 10.6741 53.0961 10.7021C52.9179 10.7628 52.7747 10.7928 52.6525 10.7928L52.6322 10.7932C52.3404 10.7932 52.2102 10.6247 52.2102 10.2477V8.08159H53.3764C53.5639 8.08159 53.715 7.92937 53.715 7.7412V7.03295C53.715 6.8464 53.5639 6.69484 53.3764 6.69484H52.2101V5.44322C52.2101 5.25533 52.0577 5.10498 51.8713 5.10498H50.543C50.3563 5.10498 50.2043 5.25506 50.2043 5.44322V6.70453H49.7426C49.555 6.70453 49.4033 6.85703 49.4033 7.04277V7.74106C49.4033 7.92923 49.5553 8.08146 49.7426 8.08146H50.2044V10.5368C50.2044 11.714 50.9687 12.447 52.1994 12.447C52.6732 12.447 53.1766 12.3377 53.5819 12.1435C53.7314 12.0737 53.8072 11.9051 53.7625 11.7472L53.5313 10.9305Z" fill="white"/>
<path d="M10.8327 6.74575H9.67921C9.49199 6.74575 9.34084 6.89771 9.34084 7.08385V7.24174C8.98416 6.87725 8.49907 6.68652 7.92326 6.68652L7.89298 6.68679C6.54378 6.68679 5.60254 7.7353 5.60254 9.23579C5.60254 10.7701 6.55831 11.8404 7.9277 11.8404C8.50176 11.8404 8.98537 11.6499 9.3407 11.2876V11.611C9.3407 12.2302 8.89196 12.5988 8.1405 12.5988C7.68381 12.5988 7.21784 12.4704 6.79467 12.2302C6.71431 12.1843 6.61861 12.1743 6.53018 12.1999C6.44189 12.2251 6.36692 12.2886 6.32492 12.3692L5.97901 13.045C5.8969 13.2057 5.95464 13.4035 6.11024 13.4942C6.745 13.8611 7.50964 14.0628 8.26541 14.0628C10.0031 14.0628 11.1711 13.0579 11.1711 11.5632V7.08385C11.1712 6.89771 11.0191 6.74575 10.8327 6.74575ZM8.34374 10.4648C7.73523 10.4648 7.3274 9.98994 7.3274 9.28384C7.3274 8.57155 7.73536 8.09414 8.34374 8.09414C8.93987 8.09414 9.34084 8.57155 9.34084 9.28384C9.34084 9.98994 8.93974 10.4648 8.34374 10.4648Z" fill="white"/>
</g>
<defs>
<clipPath id="clip0_142_9">
<rect width="60" height="60" fill="white"/>
</clipPath>
</defs>
</svg>
