<svg width="74" height="75" viewBox="0 0 74 75" fill="none" xmlns="http://www.w3.org/2000/svg">
<g clip-path="url(#clip0_1_911)">
<path d="M67.8574 0.360352H33.3145C31.5801 0.360352 30.1227 0.962565 28.9424 2.16699C27.762 3.37142 27.1478 4.81673 27.0996 6.50293V36.1318C27.1478 36.8545 27.2803 37.529 27.4971 38.1553C27.7139 38.7816 28.0391 39.3597 28.4727 39.8896H28.4004C27.0033 40.6605 25.4736 41.2507 23.8115 41.6602C22.1494 42.0697 20.4271 42.2744 18.6445 42.2744C18.5964 42.2744 18.5602 42.2744 18.5361 42.2744C18.512 42.2744 18.5 42.2744 18.5 42.2744H9.90039C7.1543 42.3226 4.82975 43.2982 2.92676 45.2012C1.02376 47.1042 0.0722656 49.4287 0.0722656 52.1748C0.0722656 54.7282 0.927409 56.9443 2.6377 58.8232C4.34798 60.7021 6.45573 61.762 8.96094 62.0029H9.0332L13.0078 72.0479C13.2969 72.7223 13.7546 73.2764 14.3809 73.71C15.0072 74.1436 15.7057 74.3604 16.4766 74.3604H19.7285C20.7402 74.3604 21.6074 73.999 22.3301 73.2764C23.0527 72.5537 23.4141 71.6865 23.4141 70.6748C23.4141 70.4339 23.39 70.193 23.3418 69.9521C23.2936 69.7113 23.2214 69.4704 23.125 69.2295L23.1973 69.3018L20.3066 62.0752C23.0046 62.3161 25.5098 63.0026 27.8223 64.1348C30.1348 65.2669 32.1823 66.7243 33.9648 68.5068C34.2539 68.7959 34.5911 69.0247 34.9766 69.1934C35.362 69.362 35.7715 69.4463 36.2051 69.4463C36.446 69.4463 36.6748 69.4222 36.8916 69.374C37.1084 69.3258 37.3132 69.2536 37.5059 69.1572H37.4336C38.0599 68.9163 38.5537 68.5309 38.915 68.001C39.2764 67.471 39.457 66.8688 39.457 66.1943V58.1729C40.9023 57.8838 42.0827 57.1852 42.998 56.0771C43.9134 54.9691 44.3711 53.6683 44.3711 52.1748C44.3711 50.6813 43.9134 49.3685 42.998 48.2363C42.0827 47.1042 40.9264 46.3936 39.5293 46.1045H39.457V42.2744H48.1289V50.6572C48.1289 51.2354 48.2734 51.7412 48.5625 52.1748C48.8516 52.6084 49.237 52.9215 49.7188 53.1143C49.9115 53.2106 50.0921 53.2829 50.2607 53.3311C50.4294 53.3792 50.6341 53.4033 50.875 53.4033C51.2122 53.4033 51.5374 53.3431 51.8506 53.2227C52.1637 53.1022 52.4408 52.9215 52.6816 52.6807L64.0996 42.2744H67.8574C69.5436 42.2744 70.9889 41.6722 72.1934 40.4678C73.3978 39.2633 74 37.818 74 36.1318V6.50293C74 4.81673 73.3978 3.37142 72.1934 2.16699C70.9889 0.962565 69.5436 0.360352 67.8574 0.360352ZM2.45703 52.1748C2.45703 50.1032 3.17969 48.3447 4.625 46.8994C6.07031 45.4541 7.82878 44.7314 9.90039 44.7314H17.2715V59.5459H9.90039C7.82878 59.5459 6.07031 58.8232 4.625 57.3779C3.17969 55.9326 2.45703 54.1982 2.45703 52.1748ZM20.8848 70.1689C20.8848 70.2653 20.8968 70.3496 20.9209 70.4219C20.945 70.4941 20.957 70.5785 20.957 70.6748C20.957 71.012 20.8366 71.3011 20.5957 71.542C20.3548 71.7829 20.0658 71.9033 19.7285 71.9033H16.4766C16.2357 71.9033 16.0068 71.8311 15.79 71.6865C15.5732 71.542 15.4167 71.3493 15.3203 71.1084L11.707 62.0029H17.6328L20.8848 70.1689ZM37 66.1943C37 66.3389 36.9518 66.4834 36.8555 66.6279C36.7591 66.7725 36.6387 66.8688 36.4941 66.917C36.446 66.917 36.3978 66.929 36.3496 66.9531C36.3014 66.9772 36.2533 66.9893 36.2051 66.9893C36.1087 66.9893 36.0124 66.9652 35.916 66.917C35.8197 66.8688 35.7474 66.8206 35.6992 66.7725C33.6276 64.6527 31.2308 62.9665 28.5088 61.7139C25.7868 60.4613 22.8841 59.7627 19.8008 59.6182H19.7285V44.7314C22.86 44.5869 25.7868 43.8763 28.5088 42.5996C31.2308 41.3229 33.6276 39.6488 35.6992 37.5771C35.7474 37.529 35.8197 37.4808 35.916 37.4326C36.0124 37.3844 36.1087 37.3604 36.2051 37.3604C36.2533 37.3604 36.3014 37.3604 36.3496 37.3604C36.3978 37.3604 36.446 37.3844 36.4941 37.4326C36.6387 37.4808 36.7591 37.5651 36.8555 37.6855C36.9518 37.806 37 37.9626 37 38.1553V66.1943ZM41.9141 52.1748C41.9141 52.9456 41.6852 53.6442 41.2275 54.2705C40.7699 54.8968 40.1797 55.3545 39.457 55.6436V48.7061C40.1797 48.9469 40.7699 49.3805 41.2275 50.0068C41.6852 50.6331 41.9141 51.3558 41.9141 52.1748ZM71.543 36.1318C71.543 37.1436 71.1816 38.0107 70.459 38.7334C69.7363 39.4561 68.8691 39.8174 67.8574 39.8174H63.5938C63.4492 39.8174 63.3047 39.8535 63.1602 39.9258C63.0156 39.998 62.8952 40.0824 62.7988 40.1787L51.0195 50.874C51.0195 50.874 50.9954 50.8861 50.9473 50.9102C50.8991 50.9342 50.875 50.9463 50.875 50.9463C50.8268 50.9463 50.7907 50.9463 50.7666 50.9463C50.7425 50.9463 50.7305 50.9222 50.7305 50.874C50.6823 50.874 50.6462 50.8499 50.6221 50.8018C50.598 50.7536 50.5859 50.7054 50.5859 50.6572V41.0459C50.5859 40.7087 50.4655 40.4196 50.2246 40.1787C49.9837 39.9378 49.6947 39.8174 49.3574 39.8174H39.457V38.1553C39.457 37.4808 39.2764 36.8786 38.915 36.3486C38.5537 35.8187 38.084 35.4092 37.5059 35.1201H37.4336C37.2891 35.0719 37.1084 35.0238 36.8916 34.9756C36.6748 34.9274 36.446 34.9033 36.2051 34.9033C35.7715 34.9033 35.362 34.9876 34.9766 35.1562C34.5911 35.3249 34.2539 35.5537 33.9648 35.8428C33.4349 36.3245 32.8929 36.7943 32.3389 37.252C31.7848 37.7096 31.2188 38.1553 30.6406 38.5889H30.5684C30.2793 38.2998 30.0505 37.9385 29.8818 37.5049C29.7132 37.0713 29.6289 36.6136 29.6289 36.1318V6.50293C29.6289 5.49121 29.9902 4.62402 30.7129 3.90137C31.4355 3.17871 32.3027 2.81738 33.3145 2.81738H67.8574C68.8691 2.81738 69.7363 3.17871 70.459 3.90137C71.1816 4.62402 71.543 5.49121 71.543 6.50293V36.1318ZM35.7715 11.4893H51.8145C52.1517 11.4893 52.4408 11.3688 52.6816 11.1279C52.9225 10.887 53.043 10.598 53.043 10.2607C53.043 9.87533 52.9225 9.56217 52.6816 9.32129C52.4408 9.0804 52.1517 8.95996 51.8145 8.95996H35.7715C35.4342 8.95996 35.1452 9.0804 34.9043 9.32129C34.6634 9.56217 34.543 9.87533 34.543 10.2607C34.543 10.598 34.6634 10.887 34.9043 11.1279C35.1452 11.3688 35.4342 11.4893 35.7715 11.4893ZM65.4004 17.6318H35.7715C35.4342 17.6318 35.1452 17.7523 34.9043 17.9932C34.6634 18.234 34.543 18.5231 34.543 18.8604C34.543 19.1976 34.6634 19.4867 34.9043 19.7275C35.1452 19.9684 35.4342 20.0889 35.7715 20.0889H65.4004C65.7376 20.0889 66.0267 19.9684 66.2676 19.7275C66.5085 19.4867 66.6289 19.1976 66.6289 18.8604C66.6289 18.5231 66.5085 18.234 66.2676 17.9932C66.0267 17.7523 65.7376 17.6318 65.4004 17.6318ZM65.4004 23.7744H45.5996C45.2624 23.7744 44.9733 23.8949 44.7324 24.1357C44.4915 24.3766 44.3711 24.6657 44.3711 25.0029C44.3711 25.3402 44.4915 25.6292 44.7324 25.8701C44.9733 26.111 45.2624 26.2314 45.5996 26.2314H65.4004C65.7376 26.2314 66.0267 26.111 66.2676 25.8701C66.5085 25.6292 66.6289 25.3402 66.6289 25.0029C66.6289 24.6657 66.5085 24.3766 66.2676 24.1357C66.0267 23.8949 65.7376 23.7744 65.4004 23.7744ZM35.7715 26.2314H40.6855C41.0228 26.2314 41.3118 26.111 41.5527 25.8701C41.7936 25.6292 41.9141 25.3402 41.9141 25.0029C41.9141 24.6657 41.7936 24.3766 41.5527 24.1357C41.3118 23.8949 41.0228 23.7744 40.6855 23.7744H35.7715C35.4342 23.7744 35.1452 23.8949 34.9043 24.1357C34.6634 24.3766 34.543 24.6657 34.543 25.0029C34.543 25.3402 34.6634 25.6292 34.9043 25.8701C35.1452 26.111 35.4342 26.2314 35.7715 26.2314ZM60.4141 29.9893H35.7715C35.4342 29.9893 35.1452 30.1097 34.9043 30.3506C34.6634 30.5915 34.543 30.8805 34.543 31.2178C34.543 31.555 34.6634 31.8441 34.9043 32.085C35.1452 32.3258 35.4342 32.4463 35.7715 32.4463H60.4141C60.7513 32.4463 61.0404 32.3258 61.2812 32.085C61.5221 31.8441 61.6426 31.555 61.6426 31.2178C61.6426 30.8805 61.5221 30.5915 61.2812 30.3506C61.0404 30.1097 60.7513 29.9893 60.4141 29.9893Z" fill="#FFA415"/>
</g>
<defs>
<clipPath id="clip0_1_911">
<rect width="74" height="74" fill="white" transform="matrix(1 0 0 -1 0 74.3604)"/>
</clipPath>
</defs>
</svg>
