<svg width="46" height="46" viewBox="0 0 46 46" fill="none" xmlns="http://www.w3.org/2000/svg">
<g clip-path="url(#clip0_1_32)">
<path d="M42.9951 13.0968C42.2041 11.5441 41.2446 10.1085 40.1167 8.79016C38.9888 7.4718 37.7363 6.29993 36.3594 5.27454C36.1543 5.12805 35.9272 5.06946 35.6782 5.09875C35.4292 5.12805 35.2314 5.24524 35.085 5.45032C34.9385 5.6554 34.8799 5.88245 34.9092 6.13147C34.9385 6.38049 35.0557 6.5929 35.2607 6.76868C36.5498 7.70618 37.7144 8.78284 38.7544 9.99866C39.7944 11.2145 40.666 12.5255 41.3691 13.9318C42.1309 15.3966 42.7021 16.92 43.083 18.5021C43.4639 20.0841 43.6543 21.7101 43.6543 23.38C43.6543 26.2218 43.1123 28.9025 42.0283 31.422C40.9443 33.9415 39.4722 36.1315 37.6118 37.9918C35.7515 39.8522 33.5615 41.3243 31.042 42.4083C28.5225 43.4923 25.8418 44.0343 23 44.0343C20.1582 44.0343 17.4775 43.4923 14.958 42.4083C12.4385 41.3243 10.2485 39.8522 8.38818 37.9918C6.52783 36.1315 5.05566 33.9415 3.97168 31.422C2.8877 28.9025 2.3457 26.2218 2.3457 23.38C2.3457 20.5382 2.8877 17.8575 3.97168 15.338C5.05566 12.8185 6.52783 10.6285 8.38818 8.76819C10.2485 6.90784 12.4385 5.43567 14.958 4.35168C17.4775 3.2677 20.1582 2.72571 23 2.72571C23.2637 2.72571 23.4834 2.63049 23.6592 2.44006C23.835 2.24963 23.9229 2.03723 23.9229 1.80286C23.9229 1.53918 23.835 1.31946 23.6592 1.14368C23.4834 0.967896 23.2637 0.880005 23 0.880005C19.8945 0.880005 16.9795 1.46594 14.2549 2.63782C11.5303 3.83899 9.1499 5.45764 7.11377 7.49377C5.07764 9.52991 3.45898 11.9103 2.25781 14.6349C1.08594 17.3595 0.5 20.2745 0.5 23.38C0.5 26.4855 1.08594 29.4005 2.25781 32.1251C3.45898 34.8497 5.07764 37.2301 7.11377 39.2662C9.1499 41.3024 11.5303 42.921 14.2549 44.1222C16.9795 45.2941 19.8945 45.88 23 45.88C26.1055 45.88 29.0205 45.2941 31.7451 44.1222C34.4697 42.921 36.8501 41.3024 38.8862 39.2662C40.9224 37.2301 42.541 34.8497 43.7422 32.1251C44.9141 29.4005 45.5 26.4855 45.5 23.38C45.5 21.5929 45.2876 19.8278 44.8628 18.0846C44.438 16.3414 43.8154 14.6788 42.9951 13.0968ZM17.2432 12.921C17.0967 13.0089 16.9795 13.1261 16.8916 13.2726C16.8037 13.4191 16.7598 13.5656 16.7598 13.712V33.839C16.7598 34.0734 16.855 34.2858 17.0454 34.4762C17.2358 34.6666 17.4482 34.7618 17.6826 34.7618C17.9463 34.7618 18.166 34.6666 18.3418 34.4762C18.5176 34.2858 18.6055 34.0734 18.6055 33.839V15.338L32.1846 23.424L22.209 29.84C22.0039 29.9865 21.8721 30.1769 21.8135 30.4113C21.7549 30.6456 21.7988 30.88 21.9453 31.1144C22.0625 31.3195 22.2456 31.4513 22.4946 31.5099C22.7437 31.5685 22.9707 31.5245 23.1758 31.3781L34.3818 24.171C34.5283 24.0831 34.6382 23.9659 34.7114 23.8195C34.7847 23.673 34.8213 23.5265 34.8213 23.38C34.8213 23.2042 34.7847 23.0504 34.7114 22.9186C34.6382 22.7867 34.5283 22.6769 34.3818 22.589L18.166 12.921C18.0195 12.8624 17.8657 12.8258 17.7046 12.8112C17.5435 12.7965 17.3896 12.8331 17.2432 12.921Z" fill="#122F2A"/>
</g>
<defs>
<clipPath id="clip0_1_32">
<rect width="45" height="45" fill="white" transform="matrix(1 0 0 -1 0.5 45.88)"/>
</clipPath>
</defs>
</svg>
