<svg width="58" height="58" viewBox="0 0 58 58" fill="none" xmlns="http://www.w3.org/2000/svg">
<g clip-path="url(#clip0_143_66)">
<path d="M35.1475 7.00204C35.1475 8.18304 35.6715 9.38104 36.4875 10.114C37.4285 9.95104 38.1475 8.29404 38.1475 8.29404H40.1475C40.1475 9.29404 39.6235 10.381 38.8075 11.113C38.9215 11.123 39.0315 11.074 39.1475 11.074C41.3535 11.074 43.1475 9.24404 43.1475 7.03704C43.1475 4.83004 41.3535 3.01904 39.1475 3.01904C36.9415 3.02004 35.1475 4.79504 35.1475 7.00204Z" fill="white"/>
<path d="M4.14746 19.0021C4.14746 21.2081 5.94146 23.0021 8.14746 23.0021C8.26346 23.0021 8.37346 23.1241 8.48746 23.1141C7.67146 22.3811 7.14746 21.2941 7.14746 20.2941H9.14746C9.14746 20.2941 9.86646 21.9511 10.8075 22.1131C11.6235 21.3801 12.1475 20.2551 12.1475 19.0741C12.1475 16.8681 10.3535 15.0371 8.14746 15.0371C5.94146 15.0381 4.14746 16.7951 4.14746 19.0021Z" fill="white"/>
<path d="M51.1475 3.61416L52.9855 3.00116L51.1475 2.38916V3.61416Z" fill="white"/>
<path d="M40.67 16.002H39.624L40.147 17.309L40.67 16.002Z" fill="white"/>
<path d="M18.1475 38.294H13.1475C12.5945 38.294 12.1475 37.554 12.1475 37.002V32.002C12.1475 31.712 12.2735 31.437 12.4925 31.246C12.7115 31.057 13.0025 30.969 13.2895 31.012L19.9795 31.968L26.6875 28.615L26.3845 28.16L25.7775 27.25L19.5425 29.922C19.3185 30.018 19.0645 30.177 18.8325 30.098L12.9855 28.294H10.1475V35.294H8.14746V28.294H5.14746C3.49346 28.294 2.14746 29.347 2.14746 31.002V41.294H4.14746V32.294H6.14746V55.294H9.14746V42.002C9.14746 41.449 9.59446 41.294 10.1475 41.294H17.1475C17.7005 41.294 18.1475 41.449 18.1475 42.002V49.294H21.1475V41.002C21.1475 39.347 19.8015 38.294 18.1475 38.294Z" fill="white"/>
<path d="M51.1478 15.0019C51.1478 15.5539 50.7008 16.2939 50.1478 16.2939H42.8248L41.0768 20.5189C40.9248 20.8989 40.5578 21.0749 40.1478 21.0749C39.7388 21.0749 39.3718 20.9359 39.2188 20.5559L37.4708 16.2939H35.5098L29.9478 20.7829L27.3018 26.0029L28.1478 27.2349L31.3158 22.4649C31.3778 22.3699 31.4578 22.2779 31.5478 22.2109L35.5478 19.2059C35.8498 18.9789 36.2568 18.9409 36.5948 19.1089C36.9338 19.2789 37.1478 19.6229 37.1478 20.0019V43.2939H40.1478V38.0019V30.0019C40.1478 29.4489 40.5948 29.2939 41.1478 29.2939H48.1478C48.7008 29.2939 49.1478 29.4489 49.1478 30.0019V37.2939H52.1478V29.0019C52.1478 27.3469 50.8018 26.2939 49.1478 26.2939H44.1478C43.5948 26.2939 43.1478 25.5539 43.1478 25.0019V19.0019C43.1478 18.4489 43.5948 18.2939 44.1478 18.2939H50.1478C51.8018 18.2939 53.1478 16.6559 53.1478 15.0019V10.2939H51.1478V15.0019Z" fill="white"/>
<path d="M39.1475 13.002C42.4565 13.002 45.1475 10.311 45.1475 7.00195C45.1475 3.69295 42.4565 1.00195 39.1475 1.00195C35.8385 1.00195 33.1475 3.69295 33.1475 7.00195C33.1475 10.311 35.8385 13.002 39.1475 13.002ZM39.1475 3.00095C41.3535 3.00095 43.1475 4.79495 43.1475 7.00095C43.1475 9.20695 41.3535 11.001 39.1475 11.001C39.0305 11.001 38.9215 11.123 38.8075 11.113C39.6235 10.381 40.1475 9.29395 40.1475 8.29395H38.1475C38.1475 8.29395 37.4285 9.95095 36.4875 10.113C35.6715 9.38095 35.1475 8.25595 35.1475 7.07495C35.1475 4.86895 36.9415 3.00095 39.1475 3.00095Z" fill="white"/>
<path d="M8.14746 25.002C11.4565 25.002 14.1475 22.311 14.1475 19.002C14.1475 15.693 11.4565 13.002 8.14746 13.002C4.83846 13.002 2.14746 15.693 2.14746 19.002C2.14746 22.311 4.83846 25.002 8.14746 25.002ZM8.14746 15.002C10.3535 15.002 12.1475 16.796 12.1475 19.002C12.1475 20.183 11.6235 21.381 10.8075 22.114C9.86646 21.951 9.14746 20.294 9.14746 20.294H7.14746C7.14746 21.294 7.67146 22.381 8.48746 23.113C8.37346 23.123 8.26346 23.074 8.14746 23.074C5.94146 23.074 4.14746 21.244 4.14746 19.037C4.14746 16.83 5.94146 15.002 8.14746 15.002Z" fill="white"/>
<path d="M56.4635 2.05317L50.4635 0.0531703C50.1565 -0.0518297 49.8235 0.00117034 49.5625 0.19017C49.3015 0.37917 49.1475 0.68017 49.1475 1.00117V9.00117V14.2942H35.1475C34.9135 14.2942 34.6865 14.2302 34.5065 14.3792L28.5065 19.3062C28.4015 19.3952 28.3145 19.4682 28.2525 19.5912L25.4165 25.2462L19.1025 27.9422L13.4635 26.2052C13.3615 26.1702 13.2545 26.2942 13.1475 26.2942H5.14746C2.39046 26.2942 0.147461 28.2452 0.147461 31.0022V42.0022C0.147461 42.5542 0.594461 43.2942 1.14746 43.2942H4.14746V55.2942H0.147461V57.2942H5.14746H10.1475H14.1475C14.7005 57.2942 15.1475 56.5542 15.1475 56.0022V51.2942H17.1475H22.1475H29.1475C29.7005 51.2942 30.1475 50.5542 30.1475 50.0022V45.2942H36.1475H41.1475C41.7005 45.2942 42.1475 44.5542 42.1475 44.0022V39.2942H48.1475H53.1475H56.1475V37.2942H54.1475V29.0022C54.1475 26.2452 51.9045 24.2942 49.1475 24.2942H45.1475V20.2942H50.1475C52.9045 20.2942 55.1475 17.7582 55.1475 15.0022V9.00217C55.1475 8.44917 54.7005 8.29417 54.1475 8.29417H51.1475V5.72217L56.4635 3.95017C56.8725 3.81417 57.1475 3.43217 57.1475 3.00117C57.1475 2.57017 56.8725 2.18917 56.4635 2.05317ZM40.6705 16.0022L40.1475 17.3092L39.6245 16.0012H40.6705V16.0022ZM14.1475 49.2942C13.5945 49.2942 13.1475 49.4492 13.1475 50.0022V55.2942H11.1475V43.2942H16.1475V49.2942H14.1475ZM18.1475 49.2942V42.0022C18.1475 41.4492 17.7005 41.2942 17.1475 41.2942H10.1475C9.59446 41.2942 9.14746 41.4492 9.14746 42.0022V55.2942H6.14746V32.2942H4.14746V41.2942H2.14746V31.0022C2.14746 29.3472 3.49346 28.2942 5.14746 28.2942H8.14746V35.2942H10.1475V28.2942H12.9855L18.8315 30.0962C19.0635 30.1752 19.3175 30.0892 19.5415 29.9942L25.7765 27.2862L26.3835 28.1782L26.6865 28.6242L19.9785 31.9732L13.2885 31.0152C13.0015 30.9722 12.7105 31.0592 12.4915 31.2482C12.2735 31.4372 12.1475 31.7112 12.1475 32.0022V37.0022C12.1475 37.5542 12.5945 38.2942 13.1475 38.2942H18.1475C19.8015 38.2942 21.1475 39.3472 21.1475 41.0022V49.2942H18.1475ZM29.1475 43.2942C28.5945 43.2942 28.1475 43.4492 28.1475 44.0022V49.2942H23.1475V41.0022C23.1475 38.2452 20.9045 36.2942 18.1475 36.2942H14.1475V33.1552L20.0055 33.9922C20.2075 34.0202 20.4115 33.9862 20.5945 33.8962L28.5945 29.8962C28.7405 29.8232 28.8555 29.7122 28.9485 29.5832C28.9565 29.5722 28.9715 29.5682 28.9795 29.5572L32.8845 23.7002L35.1475 22.0022V43.2942H29.1475ZM47.1475 37.2942H42.1475V31.2942H47.1475V37.2942ZM53.1475 15.0022C53.1475 16.6562 51.8015 18.2942 50.1475 18.2942H44.1475C43.5945 18.2942 43.1475 18.4492 43.1475 19.0022V25.0022C43.1475 25.5542 43.5945 26.2942 44.1475 26.2942H49.1475C50.8015 26.2942 52.1475 27.3472 52.1475 29.0022V37.2942H49.1475V30.0022C49.1475 29.4492 48.7005 29.2942 48.1475 29.2942H41.1475C40.5945 29.2942 40.1475 29.4492 40.1475 30.0022V38.0022V43.2942H37.1475V20.0022C37.1475 19.6232 36.9335 19.2772 36.5945 19.1072C36.2565 18.9392 35.8495 18.9742 35.5475 19.2022L31.5475 22.2022C31.4565 22.2692 31.3775 22.3522 31.3155 22.4472L28.1475 27.1992L27.3015 25.9292L29.9475 20.7822L35.5095 16.2942H37.4705L39.2185 20.5192C39.3705 20.8992 39.7385 21.0752 40.1475 21.0752C40.5565 21.0752 40.9235 20.9362 41.0765 20.5562L42.8245 16.2942H50.1475C50.7005 16.2942 51.1475 15.5542 51.1475 15.0022V10.2942H53.1475C53.1475 10.2942 53.1475 15.0022 53.1475 15.0022ZM51.1475 3.61417V2.38917L52.9855 3.00117L51.1475 3.61417Z" fill="white"/>
<path d="M26.1475 5.00098H24.1475V7.00098H26.1475V5.00098Z" fill="white"/>
<path d="M22.1475 5.00098H20.1475V7.00098H22.1475V5.00098Z" fill="white"/>
<path d="M18.1475 5.00098H16.1475V7.00098H18.1475V5.00098Z" fill="white"/>
</g>
<defs>
<clipPath id="clip0_143_66">
<rect width="57.294" height="57.294" fill="white"/>
</clipPath>
</defs>
</svg>
