<svg width="60" height="61" viewBox="0 0 60 61" fill="none" xmlns="http://www.w3.org/2000/svg">
<mask id="mask0_167_48" style="mask-type:luminance" maskUnits="userSpaceOnUse" x="0" y="0" width="60" height="61">
<path d="M60 60.3496H0V0.349609H60V60.3496Z" fill="white"/>
</mask>
<g mask="url(#mask0_167_48)">
<path d="M40.8984 18.3379C41.3672 17.4785 41.7188 16.5703 41.9531 15.6132C42.1875 14.6562 42.3047 13.6699 42.3047 12.6543C42.3047 10.9746 41.9727 9.37304 41.3086 7.84961C40.6836 6.36523 39.8145 5.0664 38.7012 3.95312C37.5879 2.83984 36.2891 1.9707 34.8047 1.3457C33.2812 0.68164 31.6797 0.349609 30 0.349609C28.3203 0.349609 26.7188 0.68164 25.1953 1.3457C23.7109 1.9707 22.4121 2.83984 21.2988 3.95312C20.1855 5.0664 19.3164 6.36523 18.6914 7.84961C18.0273 9.37304 17.6953 10.9746 17.6953 12.6543C17.6953 13.6699 17.8125 14.6562 18.0469 15.6132C18.2812 16.5703 18.6328 17.4785 19.1016 18.3379C16.9141 18.7675 14.8828 19.5683 13.0078 20.7402C11.1328 21.9121 9.50195 23.3379 8.11523 25.0175C6.72852 26.6972 5.625 28.6113 4.80469 30.7597C4.02344 32.8691 3.63281 35.1152 3.63281 37.498V39.959C3.63281 42.8105 4.16992 45.5254 5.24414 48.1035C6.31836 50.6816 7.85156 52.9863 9.84375 55.0175C10.4297 55.6035 11.1133 56.0527 11.8945 56.3652C12.6758 56.6777 13.4766 56.834 14.2969 56.834C15.6641 56.834 16.8848 56.4433 17.959 55.6621C19.0332 54.8808 19.7852 53.8457 20.2148 52.5566C21.4258 53.6113 22.7734 54.7636 24.2578 56.0136C25.7422 57.2636 27.2656 58.5722 28.8281 59.9394C29.0234 60.0566 29.2188 60.1543 29.4141 60.2324C29.6094 60.3105 29.8047 60.3496 30 60.3496C30.1953 60.3496 30.3906 60.3105 30.5859 60.2324C30.7812 60.1543 30.9766 60.0566 31.1719 59.9394C32.7344 58.5722 34.2578 57.2636 35.7422 56.0136C37.2266 54.7636 38.5742 53.6113 39.7852 52.5566C40.2148 53.8457 40.9668 54.8808 42.041 55.6621C43.1152 56.4433 44.3359 56.834 45.7031 56.834C46.5234 56.834 47.3242 56.6777 48.1055 56.3652C48.8867 56.0527 49.5703 55.6035 50.1562 55.0175C52.1484 52.9863 53.6816 50.6816 54.7559 48.1035C55.8301 45.5254 56.3672 42.8105 56.3672 39.959V37.498C56.3672 35.1152 55.9766 32.8691 55.1953 30.7597C54.375 28.6113 53.2715 26.6972 51.8848 25.0175C50.498 23.3379 48.8672 21.9121 46.9922 20.7402C45.1172 19.5683 43.0859 18.7675 40.8984 18.3379ZM30 3.86523C32.4219 3.86523 34.4922 4.72461 36.2109 6.44336C37.9297 8.16211 38.7891 10.2324 38.7891 12.6543C38.7891 15.0761 37.9297 17.1465 36.2109 18.8652C34.4922 20.584 32.4219 21.4433 30 21.4433C27.5781 21.4433 25.5078 20.584 23.7891 18.8652C22.0703 17.1465 21.2109 15.0761 21.2109 12.6543C21.2109 10.2324 22.0703 8.16211 23.7891 6.44336C25.5078 4.72461 27.5781 3.86523 30 3.86523ZM41.0742 46.3457C40.7617 46.6972 40.4297 47.0488 40.0781 47.4004C39.7266 47.7519 39.3359 48.1425 38.9062 48.5722C37.7344 49.666 36.3965 50.8476 34.8926 52.1172C33.3887 53.3867 31.7578 54.7636 30 56.248C27.8906 54.4511 25.9766 52.8496 24.2578 51.4433C22.5391 49.998 21.0742 48.6406 19.8633 47.3711C18.6523 46.1015 17.7148 44.8613 17.0508 43.6504C16.3867 42.4394 16.0547 41.1894 16.0547 39.9004C16.0547 37.9472 16.6309 36.3261 17.7832 35.0371C18.9355 33.748 20.3906 33.1035 22.1484 33.1035C23.0859 33.1035 23.9453 33.3183 24.7266 33.748C25.5078 34.1777 26.2109 34.8222 26.8359 35.6816C27.3438 36.4238 27.7148 37.0976 27.9492 37.7031C28.1836 38.3086 28.3008 38.6113 28.3008 38.6113C28.418 39.0019 28.6328 39.3144 28.9453 39.5488C29.2578 39.7832 29.6094 39.9004 30 39.9004C30.3906 39.9004 30.7422 39.7832 31.0547 39.5488C31.3672 39.3144 31.582 39.0019 31.6992 38.6113C31.6992 38.6113 31.8164 38.3086 32.0508 37.7031C32.2852 37.0976 32.6562 36.4238 33.1641 35.6816C33.7891 34.8222 34.4922 34.1777 35.2734 33.748C36.0547 33.3183 36.9141 33.1035 37.8516 33.1035C39.6094 33.1035 41.0645 33.748 42.2168 35.0371C43.3691 36.3261 43.9453 37.9472 43.9453 39.9004C43.9453 40.955 43.7207 41.9902 43.2715 43.0058C42.8223 44.0215 42.0898 45.1347 41.0742 46.3457ZM52.8516 39.959C52.8516 42.3418 52.4023 44.6074 51.5039 46.7558C50.6055 48.9043 49.3164 50.8183 47.6367 52.498C47.4023 52.7715 47.1094 52.9765 46.7578 53.1132C46.4062 53.25 46.0547 53.3183 45.7031 53.3183C44.4922 53.3183 43.6621 52.7812 43.2129 51.707C42.7637 50.6328 42.9102 49.6465 43.6523 48.748C44.7461 47.498 45.6543 46.1504 46.377 44.705C47.0996 43.2597 47.4609 41.6582 47.4609 39.9004C47.4609 37.0879 46.5625 34.666 44.7656 32.6347C42.9688 30.6035 40.6641 29.5879 37.8516 29.5879C36.3281 29.5879 34.9219 29.9394 33.6328 30.6425C32.3438 31.3457 31.2109 32.3808 30.2344 33.748C30.1953 33.7871 30.1562 33.8457 30.1172 33.9238C30.0781 34.0019 30.0391 34.0605 30 34.0996C29.9609 34.0605 29.9219 34.0019 29.8828 33.9238C29.8438 33.8457 29.8047 33.7871 29.7656 33.748C28.7891 32.3808 27.6562 31.3457 26.3672 30.6425C25.0781 29.9394 23.6719 29.5879 22.1484 29.5879C19.3359 29.5879 17.0312 30.6035 15.2344 32.6347C13.4375 34.666 12.5391 37.0879 12.5391 39.9004C12.5391 41.58 12.8906 43.1425 13.5938 44.5879C14.2969 46.0332 15.2148 47.4004 16.3477 48.6894C17.0898 49.5879 17.2363 50.584 16.7871 51.6777C16.3379 52.7715 15.5078 53.3183 14.2969 53.3183C13.9453 53.3183 13.5938 53.25 13.2422 53.1132C12.8906 52.9765 12.5977 52.7715 12.3633 52.498C10.6836 50.8183 9.39453 48.9043 8.49609 46.7558C7.59766 44.6074 7.14844 42.3418 7.14844 39.959V37.498C7.14844 35.4277 7.51953 33.4746 8.26172 31.6386C9.00391 29.8027 10.0195 28.1621 11.3086 26.7168C12.5977 25.2715 14.1211 24.0996 15.8789 23.2011C17.5977 22.2636 19.4531 21.6972 21.4453 21.5019C22.5781 22.5566 23.877 23.3965 25.3418 24.0215C26.8066 24.6465 28.3594 24.959 30 24.959C31.6406 24.959 33.1934 24.6465 34.6582 24.0215C36.123 23.3965 37.4219 22.5566 38.5547 21.5019C40.5469 21.6972 42.4023 22.2636 44.1211 23.2011C45.8789 24.0996 47.4023 25.2715 48.6914 26.7168C49.9805 28.1621 50.9961 29.8027 51.7383 31.6386C52.4805 33.4746 52.8516 35.4277 52.8516 37.498V39.959Z" fill="#213F96"/>
</g>
</svg>
