<svg width="60" height="61" viewBox="0 0 60 61" fill="none" xmlns="http://www.w3.org/2000/svg">
<g clip-path="url(#clip0_1_1102)">
<path d="M49.1602 46.2289C49.3945 45.8383 49.5312 45.4281 49.5703 44.9984C49.6094 44.5687 49.5508 44.139 49.3945 43.7094C49.1211 42.9281 48.6035 42.3617 47.8418 42.0101C47.0801 41.6586 46.3086 41.6195 45.5273 41.8929L42.5977 43.0062C42.6367 42.8109 42.6367 42.6156 42.5977 42.4203C42.5586 42.225 42.5195 42.0297 42.4805 41.8344C42.3242 41.4437 42.1094 41.1019 41.8359 40.809C41.5625 40.516 41.25 40.2914 40.8984 40.1351C40.5469 39.9789 40.166 39.891 39.7559 39.8715C39.3457 39.8519 38.9453 39.9008 38.5547 40.0179L33.1641 42.0687C33.1641 41.8734 33.1543 41.6879 33.1348 41.5121C33.1152 41.3363 33.0664 41.1703 32.9883 41.014C32.8711 40.6625 32.6855 40.3402 32.4316 40.0472C32.1777 39.7543 31.875 39.5297 31.5234 39.3734C31.1719 39.2172 30.8105 39.1293 30.4395 39.1097C30.0684 39.0902 29.6875 39.139 29.2969 39.2562L19.3945 42.9476C19.2383 42.8695 19.0723 42.7914 18.8965 42.7133C18.7207 42.6351 18.5352 42.557 18.3398 42.4789C17.2461 42.0492 16.1523 41.766 15.0586 41.6293C13.9648 41.4926 12.3633 41.7758 10.2539 42.4789C10.1758 41.932 9.91211 41.473 9.46289 41.1019C9.01367 40.7308 8.51562 40.5453 7.96875 40.5453H3.28125C2.65625 40.5453 2.10938 40.7797 1.64062 41.2484C1.17188 41.7172 0.9375 42.2836 0.9375 42.9476V47.4008C0.9375 47.6351 1.02539 47.8402 1.20117 48.016C1.37695 48.1918 1.58203 48.2797 1.81641 48.2797C2.05078 48.2797 2.25586 48.1918 2.43164 48.016C2.60742 47.8402 2.69531 47.6351 2.69531 47.4008V42.9476C2.69531 42.7523 2.75391 42.5961 2.87109 42.4789C2.98828 42.3617 3.125 42.3031 3.28125 42.3031H7.96875C8.125 42.3031 8.26172 42.3617 8.37891 42.4789C8.49609 42.5961 8.55469 42.7523 8.55469 42.9476V56.4828C8.55469 56.639 8.49609 56.7758 8.37891 56.8929C8.26172 57.0101 8.125 57.0687 7.96875 57.0687H3.28125C3.125 57.0687 2.98828 57.0101 2.87109 56.8929C2.75391 56.7758 2.69531 56.639 2.69531 56.4828V51.5023C2.69531 51.2289 2.60742 51.0043 2.43164 50.8285C2.25586 50.6527 2.05078 50.5648 1.81641 50.5648C1.58203 50.5648 1.37695 50.6527 1.20117 50.8285C1.02539 51.0043 0.9375 51.2289 0.9375 51.5023V56.4828C0.9375 57.1469 1.17188 57.7035 1.64062 58.1527C2.10938 58.6019 2.65625 58.8265 3.28125 58.8265H7.96875C8.51562 58.8265 8.99414 58.6605 9.4043 58.3285C9.81445 57.9965 10.0977 57.5765 10.2539 57.0687C11.5039 57.1078 12.5977 57.2152 13.5352 57.391C14.4727 57.5668 15.7031 57.8695 17.2266 58.2992L22.5586 59.8812C23.0273 60.0375 23.584 60.1547 24.2285 60.2328C24.873 60.3109 25.5273 60.35 26.1914 60.35C26.8555 60.35 27.5195 60.3109 28.1836 60.2328C28.8477 60.1547 29.4531 60.0375 30 59.8812C31.3672 59.4515 32.9492 58.8949 34.7461 58.2113C36.543 57.5277 37.8711 57.0101 38.7305 56.6586L49.3359 52.3812C49.7266 52.225 50.0684 51.9906 50.3613 51.6781C50.6543 51.3656 50.8594 50.9945 50.9766 50.5648C51.1328 50.057 51.1816 49.5297 51.123 48.9828C51.0645 48.4359 50.8984 47.9281 50.625 47.4594C50.4297 47.1859 50.2148 46.9418 49.9805 46.7269C49.7461 46.5121 49.4727 46.3461 49.1602 46.2289ZM41.0156 45.4672C41.0156 45.4672 41.0254 45.4672 41.0449 45.4672C41.0645 45.4672 41.0938 45.4672 41.1328 45.4672L46.1133 43.5922C46.4648 43.475 46.7969 43.4847 47.1094 43.6215C47.4219 43.7582 47.6367 43.9828 47.7539 44.2953C47.8711 44.6078 47.8516 44.9203 47.6953 45.2328C47.5391 45.5453 47.3047 45.7601 46.9922 45.8773L34.2188 50.6234C34.2188 50.5062 34.209 50.3695 34.1895 50.2133C34.1699 50.057 34.1406 49.9203 34.1016 49.8031C34.0625 49.5297 33.9844 49.266 33.8672 49.0121C33.75 48.7582 33.5938 48.5336 33.3984 48.3383L41.0156 45.4672ZM39.1992 41.7172C39.3555 41.639 39.5117 41.6097 39.668 41.6293C39.8242 41.6488 39.9805 41.6781 40.1367 41.7172C40.293 41.7953 40.4297 41.8929 40.5469 42.0101C40.6641 42.1273 40.7422 42.264 40.7812 42.4203C40.8594 42.6937 40.8594 42.9574 40.7812 43.2113C40.7031 43.4652 40.5664 43.6703 40.3711 43.8265L31.5234 47.1078L27.9492 45.8773L39.1992 41.7172ZM29.8828 40.9554C30.0391 40.8773 30.1953 40.848 30.3516 40.8676C30.5078 40.8871 30.6445 40.9164 30.7617 40.9554C30.918 41.0336 31.0352 41.1215 31.1133 41.2191C31.1914 41.3168 31.2695 41.4437 31.3477 41.6C31.3867 41.7172 31.4062 41.8539 31.4062 42.0101C31.4062 42.1664 31.3672 42.3031 31.2891 42.4203C31.2109 42.5375 31.123 42.6449 31.0254 42.7426C30.9277 42.8402 30.8008 42.9281 30.6445 43.0062C30.6445 43.0062 30.625 43.0062 30.5859 43.0062L25.3125 44.9984L22.0312 43.8265L29.8828 40.9554ZM49.3359 49.9789C49.2969 50.1351 49.2285 50.2816 49.1309 50.4183C49.0332 50.5551 48.8867 50.6625 48.6914 50.7406L38.0859 55.0179C37.2266 55.3695 35.9082 55.8773 34.1309 56.5414C32.3535 57.2054 30.8008 57.7523 29.4727 58.182C28.6133 58.4554 27.5391 58.5922 26.25 58.5922C24.9609 58.5922 23.8867 58.475 23.0273 58.2406L17.7539 56.6C16.1523 56.1312 14.8438 55.809 13.8281 55.6332C12.8125 55.4574 11.6406 55.35 10.3125 55.3109V44.3539C12.4219 43.6117 13.9453 43.2894 14.8828 43.3871C15.8203 43.4847 16.7578 43.7289 17.6953 44.1195C17.7734 44.1976 18.5352 44.4711 19.9805 44.9398C21.4258 45.4476 22.9785 45.9945 24.6387 46.5804C26.2988 47.1664 27.8125 47.6937 29.1797 48.1625C30.5859 48.6703 31.2891 48.9242 31.2891 48.9242C31.6797 49.0414 31.9531 49.2465 32.1094 49.5394C32.2656 49.8324 32.3633 50.0375 32.4023 50.1547C32.4414 50.4281 32.4414 50.682 32.4023 50.9164C32.3633 51.1508 32.2852 51.3851 32.168 51.6195C32.1289 51.6976 32.0898 51.766 32.0508 51.8246C32.0117 51.8832 31.9531 51.932 31.875 51.9711C31.5625 52.2836 31.123 52.4496 30.5566 52.4691C29.9902 52.4886 29.3359 52.3812 28.5938 52.1469L21.0938 49.6859C20.8594 49.6078 20.6348 49.6273 20.4199 49.7445C20.2051 49.8617 20.0586 50.0375 19.9805 50.2719C19.9023 50.5062 19.9219 50.7308 20.0391 50.9457C20.1562 51.1605 20.332 51.307 20.5664 51.3851L28.0078 53.8461C28.4766 54.0023 28.8965 54.1097 29.2676 54.1683C29.6387 54.2269 30 54.2562 30.3516 54.2562C31.0547 54.2562 31.6211 54.1488 32.0508 53.934C32.4805 53.7191 32.8125 53.514 33.0469 53.3187C33.1641 53.2406 33.2617 53.1527 33.3398 53.0551C33.418 52.9574 33.4766 52.8695 33.5156 52.7914L46.5234 47.9281C46.5234 47.9281 46.5332 47.9281 46.5527 47.9281C46.5723 47.9281 46.582 47.9281 46.582 47.9281C47.0117 47.7719 47.4707 47.7035 47.959 47.723C48.4473 47.7426 48.8281 47.9672 49.1016 48.3969C49.2578 48.6312 49.3555 48.8949 49.3945 49.1879C49.4336 49.4808 49.4141 49.7445 49.3359 49.9789ZM58.7695 13.5336L52.4414 1.58044C52.2852 1.30701 52.0898 1.07263 51.8555 0.877319C51.6211 0.682007 51.3477 0.545288 51.0352 0.467163C50.7227 0.349976 50.4199 0.310913 50.127 0.349976C49.834 0.389038 49.5508 0.486694 49.2773 0.642944L45.1758 2.81091C44.5898 3.08435 44.209 3.5238 44.0332 4.12927C43.8574 4.73474 43.9062 5.33044 44.1797 5.91638C43.9453 6.03357 43.7305 6.15076 43.5352 6.26794C43.3398 6.38513 43.1445 6.48279 42.9492 6.56091C41.3086 7.45935 40.0098 8.09412 39.0527 8.46521C38.0957 8.8363 36.5234 9.15857 34.3359 9.43201C34.1016 9.43201 33.9062 9.52966 33.75 9.72498C33.5938 9.92029 33.5352 10.1351 33.5742 10.3695C33.5742 10.6039 33.6621 10.7992 33.8379 10.9554C34.0137 11.1117 34.1992 11.1898 34.3945 11.1898C34.4336 11.1898 34.4629 11.1898 34.4824 11.1898C34.502 11.1898 34.5117 11.1898 34.5117 11.1898C36.8945 10.8773 38.623 10.516 39.6973 10.1058C40.7715 9.69568 42.1484 9.04138 43.8281 8.14294C43.9844 8.02576 44.1602 7.91833 44.3555 7.82068C44.5508 7.72302 44.7656 7.6156 45 7.49841L49.2188 15.4086C48.3594 15.9164 47.6367 16.4437 47.0508 16.9906C46.4648 17.5375 45.957 18.1625 45.5273 18.8656C44.7852 20.0765 43.9746 20.975 43.0957 21.5609C42.2168 22.1469 41.3281 22.6547 40.4297 23.0844C40.0391 23.2797 39.6484 23.4847 39.2578 23.6996C38.8672 23.9144 38.4766 24.1586 38.0859 24.432L30.9375 29.4711C30.8203 29.5101 30.7227 29.559 30.6445 29.6176C30.5664 29.6761 30.4688 29.725 30.3516 29.764C30.1953 29.8031 30.0488 29.8324 29.9121 29.8519C29.7754 29.8715 29.668 29.8617 29.5898 29.8226C29.4336 29.7836 29.2969 29.7054 29.1797 29.5883C29.0625 29.4711 28.9453 29.3148 28.8281 29.1195C28.5547 28.6508 28.584 27.8402 28.916 26.6879C29.248 25.5355 29.7656 24.6273 30.4688 23.9633L34.9805 19.5101C34.9805 19.5101 35 19.4906 35.0391 19.4515C35.3906 19.0219 35.5859 18.6312 35.625 18.2797C35.6641 17.9281 35.6445 17.6351 35.5664 17.4008C35.4492 17.0101 35.1855 16.6879 34.7754 16.434C34.3652 16.1801 33.8281 15.9945 33.1641 15.8773C31.3281 15.5648 29.9707 15.5941 29.0918 15.9652C28.2129 16.3363 27.5586 16.8344 27.1289 17.4594C26.7383 17.225 26.3184 17.0199 25.8691 16.8441C25.4199 16.6683 24.9609 16.5023 24.4922 16.3461C24.2578 16.307 24.0039 16.2582 23.7305 16.1996C23.457 16.141 23.2031 16.0922 22.9688 16.0531L23.0273 15.8773C23.8477 14.3929 24.8633 13.3676 26.0742 12.8011C27.2852 12.2347 28.7305 11.8344 30.4102 11.6C30.6445 11.5609 30.8398 11.4437 30.9961 11.2484C31.1523 11.0531 31.2109 10.8383 31.1719 10.6039C31.1328 10.3695 31.0156 10.1742 30.8203 10.0179C30.625 9.86169 30.4102 9.8031 30.1758 9.84216C28.5352 10.0765 26.9336 10.5258 25.3711 11.1898C23.8086 11.8539 22.5195 13.1429 21.5039 15.057L20.9766 16.0531C19.9219 16.1312 18.9062 16.3558 17.9297 16.7269C16.9531 17.098 16.0547 17.5961 15.2344 18.2211C14.2969 18.9242 13.5156 19.7543 12.8906 20.7113C12.2656 21.6683 11.7969 22.7133 11.4844 23.8461C10.7422 26.6976 11.1035 29.3929 12.5684 31.932C14.0332 34.4711 16.1719 36.1312 18.9844 36.9125C19.4531 37.0297 19.9219 37.1176 20.3906 37.1761C20.8594 37.2347 21.3086 37.264 21.7383 37.264C23.7305 37.264 25.5957 36.7269 27.334 35.6527C29.0723 34.5785 30.3906 33.1234 31.2891 31.2875C31.4062 31.2094 31.5137 31.1508 31.6113 31.1117C31.709 31.0726 31.7969 31.014 31.875 30.9359C31.875 30.9359 31.8848 30.9359 31.9043 30.9359C31.9238 30.9359 31.9336 30.9359 31.9336 30.9359L39.1406 25.8969C39.4531 25.6625 39.7852 25.4476 40.1367 25.2523C40.4883 25.057 40.8594 24.8617 41.25 24.6664C42.1875 24.1976 43.1641 23.6215 44.1797 22.9379C45.1953 22.2543 46.1328 21.2094 46.9922 19.8031C47.3828 19.2172 47.8125 18.6996 48.2812 18.2504C48.75 17.8011 49.3359 17.3812 50.0391 16.9906L50.5078 17.9281C50.7422 18.3187 51.0449 18.6215 51.416 18.8363C51.7871 19.0511 52.1875 19.1586 52.6172 19.1586C52.8125 19.1586 52.998 19.139 53.1738 19.1C53.3496 19.0609 53.5352 18.9828 53.7305 18.8656L57.832 16.6976C58.1055 16.5804 58.3398 16.3949 58.5352 16.141C58.7305 15.8871 58.8672 15.6234 58.9453 15.35C59.0625 15.0375 59.1016 14.725 59.0625 14.4125C59.0234 14.1 58.9258 13.807 58.7695 13.5336ZM32.8711 17.6351C33.2227 17.7133 33.4668 17.7816 33.6035 17.8402C33.7402 17.8988 33.8281 17.9476 33.8672 17.9867C33.8672 18.0258 33.8574 18.0648 33.8379 18.1039C33.8184 18.1429 33.7695 18.2015 33.6914 18.2797L30.8203 21.0922C30.5078 20.6234 30.166 20.1644 29.7949 19.7152C29.4238 19.266 29.0234 18.8461 28.5938 18.4554C28.8281 18.1039 29.248 17.8207 29.8535 17.6058C30.459 17.391 31.4648 17.4008 32.8711 17.6351ZM19.4531 35.1547C17.0703 34.5297 15.2734 33.1527 14.0625 31.0238C12.8516 28.8949 12.5586 26.6586 13.1836 24.3148C13.6914 22.4398 14.7168 20.8969 16.2598 19.6859C17.8027 18.475 19.5508 17.8304 21.5039 17.7523C21.9336 17.7523 22.3633 17.7816 22.793 17.8402C23.2227 17.8988 23.6523 17.9867 24.082 18.1039C24.5898 18.2211 25.0781 18.3969 25.5469 18.6312C26.0156 18.8656 26.4648 19.1195 26.8945 19.3929C27.4414 19.7836 27.9395 20.2328 28.3887 20.7406C28.8379 21.2484 29.2188 21.7953 29.5312 22.3812L29.2383 22.6742C28.3789 23.5336 27.7051 24.7152 27.2168 26.2191C26.7285 27.723 26.7383 28.9633 27.2461 29.9398C27.5195 30.4476 27.832 30.8187 28.1836 31.0531C28.5352 31.2875 28.8477 31.4437 29.1211 31.5219C28.1055 33.0844 26.709 34.2074 24.9316 34.891C23.1543 35.5746 21.3281 35.6625 19.4531 35.1547ZM57.2461 14.8226C57.2461 14.9008 57.2168 14.9691 57.1582 15.0277C57.0996 15.0863 57.0312 15.1351 56.9531 15.1742L52.9102 17.3422C52.7539 17.4203 52.5977 17.4301 52.4414 17.3715C52.2852 17.3129 52.168 17.225 52.0898 17.1078L45.7617 5.15466C45.6836 4.99841 45.6641 4.84216 45.7031 4.68591C45.7422 4.52966 45.8398 4.41248 45.9961 4.33435L50.0977 2.16638C50.1367 2.16638 50.1758 2.15662 50.2148 2.13708C50.2539 2.11755 50.293 2.10779 50.332 2.10779C50.3711 2.10779 50.4102 2.10779 50.4492 2.10779C50.4883 2.10779 50.5078 2.12732 50.5078 2.16638C50.5859 2.16638 50.6543 2.19568 50.7129 2.25427C50.7715 2.31287 50.8203 2.38123 50.8594 2.45935L57.2461 14.3539C57.2461 14.432 57.2559 14.5101 57.2754 14.5883C57.2949 14.6664 57.2852 14.7445 57.2461 14.8226Z" fill="#8139E7"/>
</g>
<defs>
<clipPath id="clip0_1_1102">
<rect width="60" height="60" fill="white" transform="matrix(1 0 0 -1 0 60.35)"/>
</clipPath>
</defs>
</svg>
