<svg width="64" height="64" viewBox="0 0 64 64" fill="none" xmlns="http://www.w3.org/2000/svg">
<path d="M30.8887 33.1107L44.222 19.7773" stroke="#1EA8DF" stroke-width="4" stroke-miterlimit="10" stroke-linecap="round" stroke-linejoin="round"/>
<path d="M62.0004 10.8889H53.1115V2L44.2227 10.8889V19.7778H53.1115L62.0004 10.8889Z" stroke="#1EA8DF" stroke-width="4" stroke-miterlimit="10" stroke-linecap="round" stroke-linejoin="round"/>
<path d="M30.889 46.444C38.2528 46.444 44.2223 40.4745 44.2223 33.1107C44.2223 25.7469 38.2528 19.7773 30.889 19.7773C23.5252 19.7773 17.5557 25.7469 17.5557 33.1107C17.5557 40.4745 23.5252 46.444 30.889 46.444Z" stroke="#1EA8DF" stroke-width="4" stroke-miterlimit="10" stroke-linecap="round" stroke-linejoin="round"/>
<path d="M55.3333 17.556C58.2222 22.0004 59.7778 27.3338 59.7778 33.1115C59.7778 49.1115 46.8889 62.0004 30.8889 62.0004C14.8889 62.0004 2 49.1115 2 33.1115C2 17.1115 14.8889 4.22266 30.8889 4.22266C36.6667 4.22266 42 5.77821 46.4444 8.6671" stroke="#1EA8DF" stroke-width="4" stroke-miterlimit="10" stroke-linecap="round" stroke-linejoin="round"/>
</svg>
