<svg width="82" height="22" viewBox="0 0 82 22" fill="none" xmlns="http://www.w3.org/2000/svg">
<path d="M15.55 6.50752C16.2813 6.62002 16.5625 7.52002 16.0281 8.05439L13.075 10.9513L13.7781 15.0294C13.8906 15.7606 13.1031 16.3231 12.4563 15.9856L8.80001 14.045L5.11564 15.9856C4.46876 16.3231 3.68126 15.7606 3.79376 15.0294L4.49689 10.9513L1.54376 8.05439C1.00939 7.52002 1.29064 6.62002 2.02189 6.50752L6.15626 5.91689L7.98439 2.17627C8.32189 1.50127 9.27814 1.52939 9.58751 2.17627L11.4438 5.91689L15.55 6.50752ZM11.6125 10.4731L14.4531 7.71689L10.5438 7.15439L8.80001 3.61064L7.02814 7.15439L3.11876 7.71689L5.95939 10.4731L5.28439 14.3544L8.80001 12.5263L12.2875 14.3544L11.6125 10.4731ZM31.75 6.50752C32.4813 6.62002 32.7625 7.52002 32.2281 8.05439L29.275 10.9513L29.9781 15.0294C30.0906 15.7606 29.3031 16.3231 28.6563 15.9856L25 14.045L21.3156 15.9856C20.6688 16.3231 19.8813 15.7606 19.9938 15.0294L20.6969 10.9513L17.7438 8.05439C17.2094 7.52002 17.4906 6.62002 18.2219 6.50752L22.3563 5.91689L24.1844 2.17627C24.5219 1.50127 25.4781 1.52939 25.7875 2.17627L27.6438 5.91689L31.75 6.50752ZM27.8125 10.4731L30.6531 7.71689L26.7438 7.15439L25 3.61064L23.2281 7.15439L19.3188 7.71689L22.1594 10.4731L21.4844 14.3544L25 12.5263L28.4875 14.3544L27.8125 10.4731ZM47.95 6.50752C48.6813 6.62002 48.9625 7.52002 48.4281 8.05439L45.475 10.9513L46.1781 15.0294C46.2906 15.7606 45.5031 16.3231 44.8563 15.9856L41.2 14.045L37.5156 15.9856C36.8688 16.3231 36.0813 15.7606 36.1938 15.0294L36.8969 10.9513L33.9438 8.05439C33.4094 7.52002 33.6906 6.62002 34.4219 6.50752L38.5563 5.91689L40.3844 2.17627C40.7219 1.50127 41.6781 1.52939 41.9875 2.17627L43.8438 5.91689L47.95 6.50752ZM44.0125 10.4731L46.8531 7.71689L42.9438 7.15439L41.2 3.61064L39.4281 7.15439L35.5188 7.71689L38.3594 10.4731L37.6844 14.3544L41.2 12.5263L44.6875 14.3544L44.0125 10.4731ZM64.15 6.50752C64.8813 6.62002 65.1625 7.52002 64.6281 8.05439L61.675 10.9513L62.3781 15.0294C62.4906 15.7606 61.7031 16.3231 61.0563 15.9856L57.4 14.045L53.7156 15.9856C53.0688 16.3231 52.2813 15.7606 52.3938 15.0294L53.0969 10.9513L50.1438 8.05439C49.6094 7.52002 49.8906 6.62002 50.6219 6.50752L54.7563 5.91689L56.5844 2.17627C56.9219 1.50127 57.8781 1.52939 58.1875 2.17627L60.0438 5.91689L64.15 6.50752ZM60.2125 10.4731L63.0531 7.71689L59.1438 7.15439L57.4 3.61064L55.6281 7.15439L51.7188 7.71689L54.5594 10.4731L53.8844 14.3544L57.4 12.5263L60.8875 14.3544L60.2125 10.4731ZM80.35 6.50752C81.0813 6.62002 81.3625 7.52002 80.8281 8.05439L77.875 10.9513L78.5781 15.0294C78.6906 15.7606 77.9031 16.3231 77.2563 15.9856L73.6 14.045L69.9156 15.9856C69.2688 16.3231 68.4813 15.7606 68.5938 15.0294L69.2969 10.9513L66.3438 8.05439C65.8094 7.52002 66.0906 6.62002 66.8219 6.50752L70.9563 5.91689L72.7844 2.17627C73.1219 1.50127 74.0781 1.52939 74.3875 2.17627L76.2438 5.91689L80.35 6.50752ZM76.4125 10.4731L79.2531 7.71689L75.3438 7.15439L73.6 3.61064L71.8281 7.15439L67.9188 7.71689L70.7594 10.4731L70.0844 14.3544L73.6 12.5263L77.0875 14.3544L76.4125 10.4731Z" fill="#D3CED2"/>
<g clip-path="url(#clip0_16_1793)">
<path d="M7.98439 2.17627C8.32189 1.50127 9.27814 1.52939 9.58751 2.17627L11.4438 5.91689L15.55 6.50752C16.2813 6.62002 16.5625 7.52002 16.0281 8.05439L13.075 10.9513L13.7781 15.0294C13.8906 15.7606 13.1031 16.3231 12.4563 15.9856L8.80001 14.045L5.11564 15.9856C4.46876 16.3231 3.68126 15.7606 3.79376 15.0294L4.49689 10.9513L1.54376 8.05439C1.00939 7.52002 1.29064 6.62002 2.02189 6.50752L6.15626 5.91689L7.98439 2.17627ZM24.1844 2.17627C24.5219 1.50127 25.4781 1.52939 25.7875 2.17627L27.6438 5.91689L31.75 6.50752C32.4813 6.62002 32.7625 7.52002 32.2281 8.05439L29.275 10.9513L29.9781 15.0294C30.0906 15.7606 29.3031 16.3231 28.6563 15.9856L25 14.045L21.3156 15.9856C20.6688 16.3231 19.8813 15.7606 19.9938 15.0294L20.6969 10.9513L17.7438 8.05439C17.2094 7.52002 17.4906 6.62002 18.2219 6.50752L22.3563 5.91689L24.1844 2.17627ZM40.3844 2.17627C40.7219 1.50127 41.6781 1.52939 41.9875 2.17627L43.8438 5.91689L47.95 6.50752C48.6813 6.62002 48.9625 7.52002 48.4281 8.05439L45.475 10.9513L46.1781 15.0294C46.2906 15.7606 45.5031 16.3231 44.8563 15.9856L41.2 14.045L37.5156 15.9856C36.8688 16.3231 36.0813 15.7606 36.1938 15.0294L36.8969 10.9513L33.9438 8.05439C33.4094 7.52002 33.6906 6.62002 34.4219 6.50752L38.5563 5.91689L40.3844 2.17627ZM56.5844 2.17627C56.9219 1.50127 57.8781 1.52939 58.1875 2.17627L60.0438 5.91689L64.15 6.50752C64.8813 6.62002 65.1625 7.52002 64.6281 8.05439L61.675 10.9513L62.3781 15.0294C62.4906 15.7606 61.7031 16.3231 61.0563 15.9856L57.4 14.045L53.7156 15.9856C53.0688 16.3231 52.2813 15.7606 52.3938 15.0294L53.0969 10.9513L50.1438 8.05439C49.6094 7.52002 49.8906 6.62002 50.6219 6.50752L54.7563 5.91689L56.5844 2.17627ZM72.7844 2.17627C73.1219 1.50127 74.0781 1.52939 74.3875 2.17627L76.2438 5.91689L80.35 6.50752C81.0813 6.62002 81.3625 7.52002 80.8281 8.05439L77.875 10.9513L78.5781 15.0294C78.6906 15.7606 77.9031 16.3231 77.2563 15.9856L73.6 14.045L69.9156 15.9856C69.2688 16.3231 68.4813 15.7606 68.5938 15.0294L69.2969 10.9513L66.3438 8.05439C65.8094 7.52002 66.0906 6.62002 66.8219 6.50752L70.9563 5.91689L72.7844 2.17627Z" fill="#FFBA08"/>
</g>
<defs>
<clipPath id="clip0_16_1793">
<rect width="64.5" height="21.59" fill="white" transform="translate(0.700012 0.27002)"/>
</clipPath>
</defs>
</svg>
