<svg width="60" height="60" viewBox="0 0 60 60" fill="none" xmlns="http://www.w3.org/2000/svg">
<path d="M11.2781 14.2741C11.2781 10.9134 13.9669 8.20312 17.3492 8.20312C20.7099 8.20312 23.4202 10.9134 23.4202 14.2741C23.3986 17.6566 20.6883 20.3452 17.3492 20.3452C13.9885 20.3452 11.2781 17.6348 11.2781 14.2741ZM44.7656 40.3125H33.75V30.4688C33.75 25.6732 29.5592 21.7969 24.8438 21.7969H10.0781C4.90127 21.7969 0.466426 26.2828 0.46877 30.7031V48.75C0.462676 50.7499 1.87525 51.7943 3.28127 51.7969C4.6908 51.7995 6.09377 50.7551 6.09377 48.75V31.1719H7.96877V51.7969H26.25V31.1719H28.125L28.144 42.9773C28.1316 45.0232 29.396 45.8944 30.7031 45.9375H44.7656C48.6007 45.9375 48.6007 40.3125 44.7656 40.3125ZM39.8649 34.8082H55.7459V37.578H39.8649V34.8082ZM57.6846 22.2511C56.6649 22.2511 55.838 23.0777 55.838 24.0977C55.838 24.3919 55.9085 24.6691 56.0311 24.9159L52.1988 26.8125L48.7449 20.9766C49.2872 20.6548 49.6519 20.0651 49.6519 19.3889C49.6519 18.3691 48.8253 17.5423 47.8053 17.5423C46.7853 17.5423 45.9586 18.3689 45.9586 19.3889C45.9586 20.0651 46.3233 20.6548 46.8656 20.9766L43.4262 26.7879L39.6701 24.9195C39.7936 24.6717 39.8649 24.3933 39.8649 24.0977C39.8649 23.078 39.0382 22.2511 38.0182 22.2511C36.9985 22.2511 36.1716 23.078 36.1716 24.0977C36.1716 25.1175 36.9982 25.9444 38.0182 25.9444C38.141 25.9444 38.2606 25.9317 38.3766 25.909L39.7723 32.9616H55.838L57.308 25.9057C57.4296 25.9308 57.5555 25.9444 57.6846 25.9444C58.7044 25.9444 59.5313 25.1177 59.5313 24.0977C59.5313 23.078 58.7046 22.2511 57.6846 22.2511Z" fill="white"/>
</svg>
