<svg width="105" height="105" viewBox="0 0 105 105" fill="none" xmlns="http://www.w3.org/2000/svg">
<mask id="mask0_67_3" style="mask-type:alpha" maskUnits="userSpaceOnUse" x="0" y="0" width="105" height="105">
<g clip-path="url(#clip0_67_3)">
<path d="M53.5416 1.75005C53.1249 4.20838 54.0833 4.83338 60.3333 6.04171C61.7083 6.33338 64.1666 8.08338 64.1666 8.79171C64.1666 9.00005 60.7916 9.16671 56.4166 9.16671C48.0416 9.16671 48.4166 9.08338 39.9999 12.0417C39.2083 12.3334 37.9166 12.75 37.1249 12.9167C36.3749 13.125 35.5416 13.4584 35.2916 13.7084C35.0416 13.9584 34.4999 14.1667 34.0416 14.1667C32.3749 14.1667 26.9166 17.2917 24.6249 19.5417C21.9999 22.1667 19.5833 25.0834 18.7499 26.6667C17.9999 28.125 16.2083 30 15.5416 30C14.3749 30 14.5833 28.75 16.2083 25.3334C18.3749 20.7917 22.0833 16.75 26.8333 13.7084C30.1666 11.625 31.4583 10.0834 30.6666 9.29171C30.2499 8.83338 25.1249 10.3334 22.2916 11.75C18.2499 13.7084 15.7499 16.2084 11.7916 22.125C8.24992 27.5417 7.33326 28.5417 4.16659 30.4167C2.12492 31.625 1.58326 32.5 1.45826 34.6667C1.41659 35.5417 1.04159 36.625 0.666591 37.0417C-0.166742 37.9584 -0.208409 42.375 0.583258 44.5834C1.58326 47.3334 5.37492 48.4167 6.04159 46.125C6.20826 45.625 6.66659 44.8334 7.08326 44.375C7.49992 43.9167 8.04159 43.0417 8.29159 42.375C8.54159 41.75 8.91659 41.25 9.16659 41.25C9.74992 41.25 9.70826 41.6667 8.91659 43.7917C8.49992 45 8.29159 46.875 8.33326 49.375C8.37492 51.4167 8.37492 54.375 8.33326 55.875C8.33326 57.5834 8.54159 59.0417 8.95826 59.8334C9.62492 61.125 9.74992 63.8334 9.20826 65.2084C8.91659 65.9584 8.83326 65.9584 8.24992 64.7917C7.87492 64.0834 7.45826 62.875 7.29159 62.0834C6.74992 59.5 5.58326 58.9167 3.49992 60.2917C2.49992 60.9167 2.45826 61.125 2.70826 63.125C2.83326 64.4167 2.79159 65.7084 2.49992 66.3334C2.12492 67.1667 2.16659 67.7084 2.70826 69C3.08326 69.875 3.87492 71.9167 4.41659 73.4584C5.70826 77.2084 7.95826 80.875 10.7916 83.9584C12.0833 85.3334 13.7916 87.2084 14.5833 88.125C19.1249 93.25 20.7083 92.625 17.1249 87.125C15.9999 85.375 14.6666 82.9167 14.1666 81.6667C13.7083 80.4167 12.7499 78.25 12.0833 76.875C10.1249 72.875 8.91659 66.1667 10.7499 69.5417C11.1666 70.25 12.1666 71.8334 13.0416 73.125C13.9166 74.375 15.2083 76.5834 15.9166 78C19.2499 84.7917 22.9583 89.2084 26.7083 90.9167C27.5416 91.2917 31.0416 93.5 34.5833 95.7917C39.2916 98.9167 41.7499 100.25 44.1249 101C45.8749 101.583 48.6249 102.5 50.2083 103.083C54.8333 104.792 57.4999 104.458 57.4999 102.25C57.4999 100.5 59.1666 99.1667 61.7083 98.7917C63.4583 98.5834 65.0416 97.875 67.9583 96.1667C70.1249 94.875 73.6666 92.9584 75.8333 91.9167C78.1666 90.7917 80.8749 89.0417 82.4166 87.7084C85.1249 85.375 86.0833 84.9584 86.4999 86C87.1666 87.7084 82.4583 91.5 75.2499 95.125C69.4583 98.0417 68.6249 98.8334 70.6666 99.5834C74.0833 100.917 78.8749 98.7917 86.5833 92.5834C91.2916 88.8334 92.6666 87.1667 95.1666 82.25C96.7499 79.125 97.0833 78.125 97.0833 76.1667C97.0833 74.125 97.2916 73.5417 98.8749 71.2084C100.958 68.125 101 68.0417 102.333 63.3334C103.417 59.4584 103.625 55.0834 102.917 51.125C102.667 49.8334 102.292 47.4167 102.083 45.75C101.75 42.9584 100.667 37.7084 99.6249 33.5834C99.4166 32.7084 99.0416 31.7917 98.7916 31.5417C98.5416 31.2917 98.3333 30.8334 98.3333 30.5417C98.3333 29 90.4999 18.5 86.9583 15.25C86.2083 14.5834 84.7499 13.25 83.6666 12.25C80.1249 8.91671 75.4166 6.20838 68.7499 3.58338C67.7083 3.16671 66.4166 2.58338 65.8333 2.29171C65.2499 2.00005 64.2916 1.66671 63.6666 1.50005C62.9999 1.37505 62.4999 0.95838 62.4999 0.625047C62.4999 0.125047 61.7083 4.6899e-05 58.1666 4.6899e-05H53.8333L53.5416 1.75005Z" fill="black"/>
<path d="M2.99999 50.0833C2.24999 50.8333 2.41665 51.9167 3.45832 53.1667C4.83332 54.7083 5.83332 54.2917 5.83332 52.1667C5.83332 50.5 5.24999 49.5833 4.16665 49.5833C3.79165 49.5833 3.29165 49.7917 2.99999 50.0833Z" fill="black"/>
</g>
</mask>
<g mask="url(#mask0_67_3)">
<rect width="105" height="105" fill="#FFA415"/>
</g>
<defs>
<clipPath id="clip0_67_3">
<rect width="105" height="105" fill="white"/>
</clipPath>
</defs>
</svg>
